<svg xmlns="http://www.w3.org/2000/svg" width="150.00" height="150.00" viewBox="0 0 150.00 150.00"><g transform="matrix(1 0 0 1 -383.74609375 -8400.0)"><g transform="matrix(1 0 0 1 383.74609375 8400)"><circle cx="75" cy="75" r="75" fill="rgb(235,185,193)" stroke="none" stroke-width="0"/></g><g transform="matrix(1 0 0 1 404.74609375 8421)"><g transform="matrix(1 0 0 1 -229.20838928222656 -94.37991333007812)"><path d="M 301.8443603515625 127.9999923706055 C 294.1983642578125 127.9999923706055 288.0000305175781 134.1983184814453 288.0000305175781 141.8443450927734 C 288.0000305175781 149.4903717041016 294.1983642578125 155.6886901855469 301.8443908691406 155.6886901855469 C 309.4904174804688 155.6886901855469 315.688720703125 149.4903564453125 315.688720703125 141.8443450927734 C 315.6800537109375 134.201904296875 309.48681640625 128.0086517333984 301.8443603515625 127.9999923706055 Z M 301.8443603515625 153.1715393066406 C 295.5885314941406 153.1715393066406 290.5171813964844 148.1001892089844 290.5171813964844 141.8443450927734 C 290.5171813964844 135.5885009765625 295.5885314941406 130.5171508789062 301.8443603515625 130.5171508789062 C 308.1002197265625 130.5171508789062 313.1715698242188 135.5885009765625 313.1715698242188 141.8443450927734 C 313.16455078125 148.0972595214844 308.0972900390625 153.1645202636719 301.8443603515625 153.1715393066406 Z" fill="rgb(94,74,77)" stroke="none" stroke-width="0"/></g><g transform="matrix(1 0 0 1 -202.22828674316406 -67.41715240478516)"><path d="M 293.7429504394531 114.8815841674805 C 293.7429504394531 105.1949005126953 286.4093933105469 97.07929229736328 276.770751953125 96.10093688964844 C 267.1305236816406 95.12319183349609 258.3163452148438 101.6004028320312 256.370361328125 111.0911407470703 C 254.4244079589844 120.5818786621094 259.9784240722656 130.0051116943359 269.22412109375 132.8995361328125 C 268.566162109375 133.8672637939453 268.3945617675781 135.0855560302734 268.7596130371094 136.1973876953125 C 269.1246337890625 137.3092346191406 269.9850158691406 138.1886901855469 271.0885620117188 138.5780792236328 L 271.0885620117188 155.1560668945312 C 271.0885620117188 157.2413330078125 272.7790222167969 158.9317932128906 274.8642883300781 158.9317932128906 C 276.9495849609375 158.9317932128906 278.6400146484375 157.2413330078125 278.6400146484375 155.1560668945312 L 278.6400146484375 138.5780792236328 C 279.7438354492188 138.1887512207031 280.6043701171875 137.3091430664062 280.9694519042969 136.1970825195312 C 281.3345336914062 135.0850372314453 281.1627197265625 133.8665161132812 280.5044555664062 132.8987426757812 C 288.3748168945312 130.4235229492188 293.732421875 123.1320037841797 293.7429504394531 114.8815765380859 Z M 276.1228637695312 138.7945556640625 L 276.1228637695312 151.3803253173828 L 273.605712890625 151.3803253173828 L 273.605712890625 138.7945556640625 L 276.1228637695312 138.7945556640625 Z M 274.8642883300781 156.4146423339844 C 274.1695251464844 156.4138488769531 273.6064758300781 155.850830078125 273.605712890625 155.1560668945312 L 273.605712890625 153.8974761962891 L 276.1228637695312 153.8974761962891 L 276.1228637695312 155.1560668945312 C 276.1220703125 155.850830078125 275.5590515136719 156.4138488769531 274.8642883300781 156.4146423339844 Z M 277.3814392089844 133.7602386474609 C 278.0765380859375 133.7602386474609 278.6400146484375 134.32373046875 278.6400146484375 135.0188293457031 C 278.6400146484375 135.7139129638672 278.0765380859375 136.2774047851562 277.3814392089844 136.2774047851562 L 272.3471374511719 136.2774047851562 C 271.6520385742188 136.2774047851562 271.0885620117188 135.7139129638672 271.0885620117188 135.0188293457031 C 271.0885620117188 134.32373046875 271.6520385742188 133.7602386474609 272.3471374511719 133.7602386474609 L 277.3814392089844 133.7602386474609 Z M 274.8642883300781 131.2430877685547 C 265.8280639648438 131.2430877685547 258.5027770996094 123.9177856445312 258.5027770996094 114.8815765380859 C 258.5027770996094 105.8453674316406 265.8280639648438 98.52007293701172 274.8642883300781 98.52008056640625 C 283.9005126953125 98.52008056640625 291.2257995605469 105.8453750610352 291.2257995605469 114.8815841674805 C 291.215576171875 123.9135589599609 283.896240234375 131.2328643798828 274.8642883300781 131.2430877685547 Z" fill="rgb(94,74,77)" stroke="none" stroke-width="0"/></g><g><path d="M 18.51715469360352 18.51715469360352 L 25.54740905761719 18.51715469360352 L 30.21295547485352 23.18285751342773 C 30.44899368286133 23.41888427734375 30.76912689208984 23.55147552490234 31.10292625427246 23.55146408081055 L 63.8259391784668 23.55146408081055 L 63.8259391784668 27.32719612121582 L 66.34309387207031 27.32719612121582 L 66.34309387207031 17.25857734680176 C 66.34309387207031 16.56348419189453 65.77960968017578 16 65.08451843261719 16 L 17.25857734680176 16 C 16.56348419189453 16 16 16.56348419189453 16 17.25857734680176 L 16 85.22175598144531 C 16 85.91683959960938 16.56348419189453 86.48033142089844 17.25857734680176 86.48033142089844 L 31.10292816162109 86.48033142089844 L 31.10292816162109 83.96318054199219 L 18.51715469360352 83.96318054199219 L 18.51715469360352 18.51715469360352 Z M 29.10713958740234 18.51715469360352 L 35.61587524414062 18.51715469360352 L 38.13302612304688 21.03430938720703 L 31.62413787841797 21.03430938720703 L 29.10713958740234 18.51715469360352 Z M 39.17575836181641 18.51715469360352 L 44.4259147644043 18.51715469360352 L 46.94306945800781 21.03430938720703 L 41.69290924072266 21.03430938720703 L 39.17575836181641 18.51715469360352 Z M 63.8259391784668 21.03430938720703 L 50.50295257568359 21.03430938720703 L 47.98579788208008 18.51715469360352 L 63.8259391784668 18.51715469360352 L 63.8259391784668 21.03430938720703 Z" fill="rgb(94,74,77)" stroke="none" stroke-width="0"/></g><g transform="matrix(1 0 0 1 -36.36223602294922 -68.94200134277344)"><path d="M 73.211669921875 156.4252624511719 L 61.92380523681641 108.6562805175781 L 97.44447326660156 100.2626647949219 L 96.86553192138672 97.81300354003906 L 60.12010955810547 106.4960861206055 C 59.4437255859375 106.6559982299805 59.02500534057617 107.3339080810547 59.18482971191406 108.0103149414062 L 71.05210876464844 158.2289733886719 C 71.21202087402344 158.9053497314453 71.88993835449219 159.3240661621094 72.56633758544922 159.1642456054688 L 102.9948120117188 151.9738464355469 L 102.4158630371094 149.5243225097656 L 73.211669921875 156.4252624511719 Z" fill="rgb(94,74,77)" stroke="none" stroke-width="0"/></g><g transform="matrix(0.9729999899864197 -0.23000000417232513 0.23000000417232513 0.9729999899864197 36.31308364868164 57.85561752319336)"><path d="M -1.9073486328125e-06 0 L 2.517152786254883 0 L 2.517152786254883 2.516994476318359 L -1.9073486328125e-06 2.516994476318359 L -1.9073486328125e-06 0 Z" fill="rgb(94,74,77)" stroke="none" stroke-width="0"/></g><g transform="matrix(0.9729999899864197 -0.23000000417232513 0.23000000417232513 0.9729999899864197 41.21116256713867 56.6988410949707)"><path d="M -1.9073486328125e-06 0 L 11.29589080810547 0 L 11.29589080810547 2.516994476318359 L 1.9073486328125e-06 2.516994476318359 L -1.9073486328125e-06 0 Z" fill="rgb(94,74,77)" stroke="none" stroke-width="0"/></g><g transform="matrix(0.9729999899864197 -0.23000000417232513 0.23000000417232513 0.9729999899864197 35.02106857299805 63.33384704589844)"><path d="M 0 0 L 20.24421501159668 0 L 20.24421501159668 2.516994476318359 L 0 2.516994476318359 L 0 0 Z" fill="rgb(94,74,77)" stroke="none" stroke-width="0"/></g><g transform="matrix(0.9729999899864197 -0.23000000417232513 0.23000000417232513 0.9729999899864197 36.178672790527344 68.23243713378906)"><path d="M 0 -3.814697265625e-06 L 22.93426895141602 -3.814697265625e-06 L 22.93426895141602 2.516994476318359 L 0 2.516994476318359 L 0 -3.814697265625e-06 Z" fill="rgb(94,74,77)" stroke="none" stroke-width="0"/></g><g transform="matrix(0.9729999899864197 -0.23000000417232513 0.23000000417232513 0.9729999899864197 37.33729553222656 73.12980651855469)"><path d="M 1.9073486328125e-06 -3.814697265625e-06 L 27.68870162963867 -3.814697265625e-06 L 27.68870162963867 2.516994476318359 L 0 2.516994476318359 L 1.9073486328125e-06 -3.814697265625e-06 Z" fill="rgb(94,74,77)" stroke="none" stroke-width="0"/></g><g transform="matrix(0.9729999899864197 -0.23000000417232513 0.23000000417232513 0.9729999899864197 38.49546813964844 78.02764892578125)"><path d="M -1.9073486328125e-06 -3.814697265625e-06 L 22.65439224243164 -3.814697265625e-06 L 22.65439224243164 2.516990661621094 L 1.9073486328125e-06 2.516990661621094 L -1.9073486328125e-06 -3.814697265625e-06 Z" fill="rgb(94,74,77)" stroke="none" stroke-width="0"/></g><g transform="matrix(1 0 0 1 -76.91947937011719 -114.78535461425781)"><path d="M 128.5686798095703 152.2149963378906 L 108.2491073608398 157.0164642333984 C 107.5727233886719 157.1763763427734 107.1540069580078 157.8542938232422 107.3138275146484 158.5307006835938 L 109.6292953491211 168.3295135498047 C 109.7055969238281 168.6546020507812 109.9081726074219 168.9359741210938 110.1922760009766 169.1114501953125 C 110.4763870239258 169.2869262695312 110.8186645507812 169.3421020507812 111.1435241699219 169.2647857666016 L 128.4489593505859 165.1755065917969 L 127.8700103759766 162.7258453369141 L 111.7891693115234 166.5258026123047 L 110.0518646240234 159.1768188476562 L 129.1465301513672 154.6645050048828 L 128.5686798095703 152.2149963378906 Z" fill="rgb(94,74,77)" stroke="none" stroke-width="0"/></g></g></g></svg>