<svg xmlns="http://www.w3.org/2000/svg" width="128.00" height="128.00" viewBox="0 0 128.00 128.00"><g transform="matrix(1 0 0 1 -72.74609375 -7992.0)"><g transform="matrix(1 0 0 1 72.74609375 7992)"><circle cx="64" cy="64" r="61.0" fill="rgb(255,233,248)" stroke="rgb(203,213,255)" stroke-width="6"/></g><g transform="matrix(1 0 0 1 103.21044921875 8022.791015625)"><g transform="matrix(1 0 0 1 1.0817790031433105 1.0817759037017822)"><g transform="matrix(1 0 0 1 46.05134201049805 30.28982162475586)"><g transform="matrix(1 0 0 1 -43.56999969482422 -29)"><path d="M 58.09829330444336 35.49067687988281 L 58.09829330444336 39.81779479980469 L 51.60762023925781 39.81779479980469 C 50.41766357421875 39.81779479980469 49.44406127929688 40.79139709472656 49.44406127929688 41.98134994506836 L 46.94514846801758 40.72648620605469 C 45.89582061767578 40.20723342895508 44.74913787841797 39.90433883666992 43.56999969482422 39.82860946655273 L 45.116943359375 39.81779479980469 L 45.116943359375 35.49067687988281 C 45.116943359375 31.90998840332031 48.02692794799805 29 51.60762023925781 29 C 53.40337371826172 29 55.02604293823242 29.72479248046875 56.19436264038086 30.9039306640625 C 57.37350082397461 32.0722541809082 58.09828948974609 33.69492340087891 58.09828948974609 35.49067687988281 Z" fill="rgb(230,233,237)" stroke="none" stroke-width="0"/></g></g><g transform="matrix(1 0 0 1 4.327116966247559 30.28982162475586)"><g transform="matrix(1 0 0 1 -5.000000476837158 -29)"><path d="M 17.98135185241699 35.49067687988281 L 17.98135185241699 38.69274139404297 C 17.52700424194336 38.94155120849609 17.10511016845703 39.22281646728516 16.69403457641602 39.54734802246094 L 13.65423393249512 41.98134994506836 C 13.65423393249512 40.79139709472656 12.68063259124756 39.81779479980469 11.49067497253418 39.81779479980469 L 5.000000476837158 39.81779479980469 L 5.000000476837158 35.49067687988281 C 5.000000476837158 31.90998840332031 7.909986019134521 29 11.49067497253418 29 C 13.28642845153809 29 14.90909767150879 29.72479248046875 16.07741928100586 30.9039306640625 C 17.25655937194824 32.0722541809082 17.98135185241699 33.69492340087891 17.98135185241699 35.49067687988281 Z" fill="rgb(230,233,237)" stroke="none" stroke-width="0"/></g></g><g transform="matrix(1 0 0 1 43.346893310546875 8.654236793518066)"><g transform="matrix(1 0 0 1 -41.06999969482422 -9)"><path d="M 45.32139205932617 17.65423393249512 L 45.32139205932617 19.81779289245605 L 44.2396125793457 19.81779289245605 C 42.68185424804688 19.81779289245605 41.38371658325195 20.9103889465332 41.06999969482422 22.3599739074707 C 41.31880950927734 20.83466529846191 42.07605361938477 20.48849678039551 42.07605361938477 18.36820793151855 C 42.07605361938477 16.44264030456543 41.4486198425293 15.98829460144043 41.14572525024414 14.75506496429443 L 41.14572525024414 14.74424648284912 C 41.82724761962891 11.46645641326904 44.72641372680664 9 48.20973968505859 9 L 55.41439056396484 9 C 59.40615463256836 9 62.62985992431641 12.22370147705078 62.62985992431641 16.21546745300293 C 62.62985992431641 17.74077606201172 62.14305877685547 19.21199607849121 61.26682281494141 20.42358779907227 C 60.73674774169922 20.04496574401855 60.08768081665039 19.81779289245605 59.384521484375 19.81779289245605 L 58.30274200439453 19.81779289245605 L 58.29192733764648 19.81779289245605 C 58.25947570800781 19.04973030090332 58.021484375 18.31411933898926 57.59959030151367 17.67586898803711 L 57.38323211669922 17.36215209960938 C 56.60435104370117 16.1938304901123 55.2953987121582 15.49067497253418 53.88908767700195 15.49067497253418 C 53.22920227050781 15.49067497253418 52.59095001220703 15.64212417602539 52.00679016113281 15.9342041015625 L 51.46590042114258 16.20464897155762 C 49.56196975708008 17.15661430358887 47.45249938964844 17.65423393249512 45.32139205932617 17.65423393249512 Z" fill="rgb(178,121,70)" stroke="none" stroke-width="0"/></g></g><g transform="matrix(1 0 0 1 20.553802490234375 0)"><g transform="matrix(1 0 0 1 -19.999998092651367 -0.9999969005584717)"><path d="M 32.98134994506836 22.63558387756348 C 35.96706008911133 22.63558387756348 38.3902473449707 20.21239852905273 38.3902473449707 17.22668838500977 L 38.3902473449707 11.23363208770752 C 38.3902473449707 9.686687469482422 37.29764938354492 8.356100082397461 35.78315734863281 8.053201675415039 L 32.98134994506836 7.479857444763184 C 31.9969310760498 8.799629211425781 30.4283504486084 9.654234886169434 28.65423393249512 9.654234886169434 L 27.57245635986328 9.654234886169434 C 26.38249778747559 9.654234886169434 25.40889739990234 10.62783527374268 25.40889739990234 11.81779289245605 L 25.40889739990234 17.22668838500977 C 25.40889739990234 20.21239852905273 27.83208274841309 22.63558387756348 30.81779289245605 22.63558387756348 L 31.89957237243652 22.63558387756348 C 31.03415107727051 22.63558387756348 30.21199798583984 22.80867004394531 29.45475196838379 23.11156845092773 C 28.64341735839844 23.43610191345215 27.91862487792969 23.93371963500977 27.31282806396484 24.53951644897461 C 26.13368988037109 25.70783805847168 25.40889739990234 27.33050727844238 25.40889739990234 29.12626075744629 L 22.46645927429199 29.12626075744629 C 20.78970146179199 29.12626075744629 19.67546844482422 27.26560020446777 20.58416366577148 25.85928535461426 C 20.86542510986328 25.40493965148926 21.08177947998047 24.86404991149902 21.08177947998047 24.07435035705566 C 21.08177947998047 23.98780822753906 21.08177947998047 23.90126609802246 21.07096290588379 23.81472396850586 C 21.08177947998047 23.78227043151855 21.08177947998047 23.74981880187988 21.08177947998047 23.71736335754395 C 21.08177947998047 23.68490982055664 21.08177947998047 23.66327476501465 21.07096290588379 23.63082122802734 C 21.08177947998047 23.50100708007812 21.06014442443848 23.36037635803223 21.03850746154785 23.23056221008301 C 21.02769088745117 23.16565704345703 21.01687240600586 23.08993148803711 21.00605392456055 23.01420593261719 C 20.75724601745605 21.4888973236084 19.99999809265137 21.14272880554199 19.99999809265137 19.02243995666504 C 19.99999809265137 17.08605575561523 20.63824844360352 16.64252471923828 20.93033027648926 15.39847946166992 L 20.93033027648926 15.38766193389893 C 21.02769088745117 15.0090389251709 21.08177757263184 14.56550884246826 21.08177757263184 13.98134899139404 L 21.08177757263184 11.81779003143311 C 21.08177757263184 8.83207893371582 22.29337120056152 6.127630710601807 24.25139236450195 4.169610023498535 C 26.20941162109375 2.211589813232422 28.91386032104492 0.9999969005584717 31.89957237243652 0.9999969005584717 C 37.87098693847656 0.9999969005584717 42.71736145019531 5.846367835998535 42.71736145019531 11.81779003143311 L 42.71736145019531 13.98134899139404 C 42.71736145019531 14.56550884246826 42.77145004272461 15.01985645294189 42.86881256103516 15.39847946166992 L 42.86881256103516 15.40929794311523 C 43.17170715332031 16.64252471923828 43.79914093017578 17.09687232971191 43.79914093017578 19.02243995666504 C 43.79914093017578 21.14272880554199 43.04189682006836 21.4888973236084 42.79308700561523 23.01420593261719 C 42.78227233886719 23.08992958068848 42.77145004272461 23.16565322875977 42.76063537597656 23.23056221008301 C 42.73899841308594 23.36037635803223 42.71736145019531 23.50100708007812 42.72818374633789 23.63082122802734 C 42.71736907958984 23.66327476501465 42.71736907958984 23.68490982055664 42.71736907958984 23.71736335754395 C 42.71736907958984 23.74981880187988 42.71736907958984 23.78227043151855 42.72818374633789 23.81472396850586 C 42.71736907958984 23.90126609802246 42.71736907958984 23.98780822753906 42.71736907958984 24.07435035705566 C 42.71736907958984 24.86404991149902 42.93372344970703 25.40493965148926 43.21498489379883 25.85928535461426 C 44.12368011474609 27.26559829711914 43.00944900512695 29.12626075744629 41.33268737792969 29.12626075744629 L 38.3902473449707 29.12626075744629 C 38.3902473449707 26.4109935760498 36.7134895324707 24.07435035705566 34.34439086914062 23.11156845092773 C 33.58714294433594 22.80867004394531 32.76499176025391 22.63558387756348 31.89957237243652 22.63558387756348 L 32.98134994506836 22.63558387756348 Z" fill="rgb(252,215,112)" stroke="none" stroke-width="0"/></g></g><g transform="matrix(1 0 0 1 0 8.65423583984375)"><g transform="matrix(1 0 0 1 -1 -8.999999046325684)"><path d="M 21.55380630493164 18.36820793151855 C 21.55380630493164 20.48849487304688 22.3110523223877 20.83466529846191 22.55986022949219 22.3599739074707 C 22.24614334106445 20.9103889465332 20.9480094909668 19.81779289245605 19.3902473449707 19.81779289245605 L 18.30846786499023 19.81779289245605 L 18.30846786499023 17.65423393249512 C 16.2314510345459 17.65423393249512 14.24097728729248 16.83208084106445 12.7697582244873 15.36086273193359 L 11.81779193878174 14.40889549255371 L 10.86582660675049 15.36086273193359 C 9.394606590270996 16.83208084106445 7.404133319854736 17.65423393249512 5.327117443084717 17.65423393249512 L 5.327117443084717 19.81779289245605 L 4.245337963104248 19.81779289245605 C 3.379914283752441 19.81779289245605 2.590215444564819 20.16396141052246 2.016872644424438 20.7048511505127 L 1.367805004119873 18.76846504211426 C 1.129813551902771 18.0328540802002 1 17.25397491455078 1 16.48591041564941 L 1 16.2154655456543 C 1 12.22370147705078 4.223702430725098 8.999999046325684 8.21546745300293 8.999999046325684 L 15.42011737823486 8.999999046325684 C 18.90344619750977 8.999999046325684 21.80261421203613 11.45563697814941 22.4841365814209 14.73342895507812 L 22.4841365814209 14.74424648284912 C 22.19205474853516 15.9882926940918 21.55380630493164 16.43182182312012 21.55380630493164 18.36820793151855 Z" fill="rgb(178,121,70)" stroke="none" stroke-width="0"/></g></g><g transform="matrix(1 0 0 1 25.96270179748535 22.111572265625)"><g transform="matrix(1 0 0 1 -25 -21.440000534057617)"><path d="M 37.98135375976562 27.45469284057617 L 37.98135375976562 38.27248764038086 L 25 38.27248764038086 L 25 27.45469284057617 C 25 25.65893936157227 25.72479248046875 24.03627014160156 26.9039306640625 22.86794853210449 C 27.50972747802734 22.26215171813965 28.23451995849609 21.76453399658203 29.04585456848145 21.44000053405762 C 28.88358688354492 21.79698753356934 28.78622627258301 22.17560958862305 28.78622627258301 22.58668518066406 C 28.78622627258301 24.07954025268555 29.9978199005127 25.29113388061523 31.49067497253418 25.29113388061523 C 32.98352813720703 25.29113388061523 34.19512557983398 24.07954025268555 34.19512557983398 22.58668518066406 C 34.19512557983398 22.17560958862305 34.09776306152344 21.79698753356934 33.93549728393555 21.44000053405762 C 36.30459213256836 22.40278244018555 37.98135375976562 24.73942565917969 37.98135375976562 27.45469284057617 Z" fill="rgb(255,130,110)" stroke="none" stroke-width="0"/></g></g><g transform="matrix(1 0 0 1 51.9254035949707 41.10761260986328)"><g transform="matrix(1 0 0 1 -49 -39.000003814697266)"><path d="M 61.98134994506836 39.00000381469727 L 61.98134994506836 60.63558578491211 L 51.16355895996094 60.63558578491211 C 49.97360229492188 60.63558578491211 49 59.66198348999023 49 58.47202682495117 L 49 41.16355895996094 C 49 39.97360610961914 49.97360229492188 39.00000381469727 51.16355895996094 39.00000381469727 L 57.65423202514648 39.00000381469727 L 61.98134994506836 39.00000381469727 Z" fill="rgb(252,215,112)" stroke="none" stroke-width="0"/></g></g><g transform="matrix(1 0 0 1 0 41.10761260986328)"><g transform="matrix(1 0 0 1 -1 -39.000003814697266)"><path d="M 13.98135089874268 41.16355895996094 L 13.98135089874268 58.47202682495117 C 13.98135089874268 59.66198348999023 13.00774955749512 60.63558578491211 11.81779193878174 60.63558578491211 L 1 60.63558578491211 L 1 39.00000381469727 L 5.327117443084717 39.00000381469727 L 11.81779193878174 39.00000381469727 C 13.00774955749512 39.00000381469727 13.98135089874268 39.97360610961914 13.98135089874268 41.16355895996094 Z" fill="rgb(79,193,233)" stroke="none" stroke-width="0"/></g></g><g transform="matrix(1 0 0 1 40.02583312988281 58.416080474853516)"><g transform="matrix(1 0 0 1 -38 -55.000003814697266)"><path d="M 42.32711791992188 57.16355895996094 L 42.32711791992188 59.32711791992188 C 42.32711791992188 60.51707458496094 41.353515625 61.49067687988281 40.16355895996094 61.49067687988281 C 38.97360229492188 61.49067687988281 38 60.51707458496094 38 59.32711791992188 L 38 57.16355895996094 C 38 55.97360610961914 38.97360229492188 55.00000381469727 40.16355895996094 55.00000381469727 C 40.75853729248047 55.00000381469727 41.29942321777344 55.23799514770508 41.68886566162109 55.63825225830078 C 42.08912658691406 56.02769470214844 42.32711791992188 56.56858444213867 42.32711791992188 57.16355895996094 Z" fill="rgb(240,208,180)" stroke="none" stroke-width="0"/></g></g><g transform="matrix(1 0 0 1 35.69871520996094 58.416080474853516)"><g transform="matrix(1 0 0 1 -34 -55.000003814697266)"><path d="M 38.32711791992188 57.16355895996094 L 38.32711791992188 59.32711791992188 C 38.32711791992188 60.51707458496094 37.35351181030273 61.49067687988281 36.16355895996094 61.49067687988281 C 34.97360229492188 61.49067687988281 34 60.51707458496094 34 59.32711791992188 L 34 57.16355895996094 C 34 55.97360610961914 34.97360229492188 55.00000381469727 36.16355895996094 55.00000381469727 C 36.75853729248047 55.00000381469727 37.2994270324707 55.23799514770508 37.68886566162109 55.63825225830078 C 38.0891227722168 56.02769470214844 38.32711791992188 56.56858444213867 38.32711791992188 57.16355895996094 Z" fill="rgb(240,208,180)" stroke="none" stroke-width="0"/></g></g><g transform="matrix(1 0 0 1 31.371597290039062 58.416080474853516)"><g transform="matrix(1 0 0 1 -30 -55.000003814697266)"><path d="M 34.32711791992188 57.16355895996094 L 34.32711791992188 59.32711791992188 C 34.32711791992188 60.51707458496094 33.353515625 61.49067687988281 32.16355895996094 61.49067687988281 C 30.97360229492188 61.49067687988281 30 60.51707458496094 30 59.32711791992188 L 30 57.16355895996094 C 30 55.97360610961914 30.97360229492188 55.00000381469727 32.16355895996094 55.00000381469727 C 32.75853729248047 55.00000381469727 33.2994270324707 55.23799514770508 33.68886566162109 55.63825225830078 C 34.08912658691406 56.02769470214844 34.32711791992188 56.56858444213867 34.32711791992188 57.16355895996094 Z" fill="rgb(240,208,180)" stroke="none" stroke-width="0"/></g></g><g transform="matrix(1 0 0 1 27.04448127746582 58.416080474853516)"><g transform="matrix(1 0 0 1 -26 -55.000003814697266)"><path d="M 30.32711601257324 57.16355895996094 L 30.32711601257324 59.32711791992188 C 30.32711601257324 60.51707458496094 29.353515625 61.49067687988281 28.1635570526123 61.49067687988281 C 26.97360038757324 61.49067687988281 26 60.51707458496094 26 59.32711791992188 L 26 57.16355895996094 C 26 57.14192581176758 26 57.12028884887695 26 57.09865188598633 C 26.0324535369873 55.9411506652832 26.99523735046387 55.00000381469727 28.1635570526123 55.00000381469727 C 28.75853538513184 55.00000381469727 29.29942512512207 55.23799514770508 29.68886566162109 55.63825225830078 C 30.08912467956543 56.02769470214844 30.32711601257324 56.56858444213867 30.32711601257324 57.16355895996094 Z" fill="rgb(240,208,180)" stroke="none" stroke-width="0"/></g></g><g transform="matrix(1 0 0 1 12.981352806091309 38.94405746459961)"><g transform="matrix(1 0 0 1 -13.000001907348633 -37)"><path d="M 22.21676063537598 49.98134994506836 C 21.85977363586426 50.43569564819336 21.65423393249512 50.99822235107422 21.65423393249512 51.60401916503906 L 21.65423393249512 51.67974090576172 C 21.65423393249512 53.12932586669922 22.8333740234375 54.30846786499023 24.282958984375 54.30846786499023 C 24.3154125213623 54.30846786499023 24.34786415100098 54.30846786499023 24.38031959533691 54.29764938354492 L 24.38031959533691 54.30846786499023 C 24.0233325958252 54.76281356811523 23.81779289245605 55.32533645629883 23.81779289245605 55.93113708496094 L 23.81779289245605 56.00685882568359 C 23.81779289245605 57.45644378662109 24.99693298339844 58.63558197021484 26.44651794433594 58.63558197021484 C 26.65205574035645 58.63558197021484 26.84677696228027 58.61394882202148 27.04149436950684 58.57067489624023 L 27.06313133239746 58.57067489624023 L 27.06313133239746 58.63558197021484 L 27.06313133239746 60.79914093017578 L 20.07483863830566 60.79914093017578 C 18.97142219543457 60.79914093017578 17.87882614135742 60.59360504150391 16.86195373535156 60.18252944946289 L 13.00000190734863 58.63558197021484 L 13.00000190734863 41.32711410522461 L 16.03980255126953 38.89311218261719 C 16.45087623596191 38.56858062744141 16.87277221679688 38.28731536865234 17.32711982727051 38.03850555419922 C 18.58198356628418 37.36780548095703 19.99911308288574 37 21.44869804382324 37 L 25.98135375976562 37 L 38.96270370483398 37 L 40.04448318481445 37 C 40.63945770263672 37 41.12626266479492 37.48680114746094 41.12626266479492 38.08177947998047 C 41.12626266479492 38.4495849609375 41.08298873901367 38.81738662719727 41.00726318359375 39.16355895996094 C 40.50964736938477 41.42447662353516 38.48671722412109 43.09041595458984 36.10680770874023 43.09041595458984 C 35.98780822753906 43.09041595458984 35.85799789428711 43.09041595458984 35.72818374633789 43.0796012878418 L 27.06313323974609 42.40889739990234 L 21.07007789611816 44.97271347045898 C 20.1072940826416 45.38379287719727 19.49068069458008 46.33575439453125 19.49068069458008 47.374267578125 C 19.49068069458008 48.09905624389648 19.78276062011719 48.74812698364258 20.25874328613281 49.21329116821289 C 20.72390747070312 49.68927383422852 21.37297630310059 49.98135375976562 22.09776878356934 49.98135375976562 L 22.11940383911133 49.98135375976562 C 22.15185737609863 49.98135375976562 22.18431091308594 49.98135375976562 22.21676445007324 49.97053909301758 Z" fill="rgb(240,208,180)" stroke="none" stroke-width="0"/></g></g><g transform="matrix(1 0 0 1 19.472026824951172 41.107608795166016)"><g transform="matrix(1 0 0 1 -19 -38.999996185302734)"><path d="M 34.58843612670898 56.94672012329102 C 34.19899749755859 56.54646301269531 33.65810775756836 56.3084716796875 33.06312942504883 56.3084716796875 C 31.87317276000977 56.3084716796875 30.89957046508789 57.28207397460938 30.89957046508789 58.47202682495117 C 30.89957046508789 57.87705230712891 30.66157913208008 57.33616256713867 30.26132202148438 56.94672012329102 C 29.87187957763672 56.54646301269531 29.33098983764648 56.3084716796875 28.73601150512695 56.3084716796875 C 27.56769180297852 56.3084716796875 26.60490798950195 57.24961853027344 26.57245635986328 58.40711975097656 L 26.55081939697266 58.40711975097656 C 26.35609817504883 58.45039367675781 26.161376953125 58.47202682495117 25.95584106445312 58.47202682495117 C 24.50625610351562 58.47202682495117 23.32711791992188 57.29288864135742 23.32711791992188 55.84330368041992 L 23.32711791992188 55.76758193969727 C 23.32711791992188 55.16178131103516 23.53265762329102 54.59925842285156 23.88964462280273 54.14491271972656 L 23.88964462280273 54.13409423828125 C 23.8571891784668 54.14491271972656 23.82473754882812 54.14491271972656 23.79228210449219 54.14491271972656 C 22.34269714355469 54.14491271972656 21.16355895996094 52.96577072143555 21.16355895996094 51.51618576049805 L 21.16355895996094 51.44046401977539 C 21.16355895996094 50.83466720581055 21.36909866333008 50.27214050292969 21.7260856628418 49.81779479980469 L 21.7260856628418 49.80698013305664 C 21.69363021850586 49.81779479980469 21.66117858886719 49.81779479980469 21.62872314453125 49.81779479980469 L 21.60708618164062 49.81779479980469 C 20.88229751586914 49.81779479980469 20.23322677612305 49.52571487426758 19.76806259155273 49.04973220825195 C 19.29207992553711 48.58456802368164 19 47.93550109863281 19 47.21070861816406 C 19 46.17219924926758 19.61661529541016 45.22023391723633 20.57939529418945 44.80915451049805 L 26.57245635986328 42.24533843994141 L 35.23750686645508 42.91604232788086 C 35.3673210144043 42.92685699462891 35.49713516235352 42.92685699462891 35.61613082885742 42.92685699462891 C 37.99604415893555 42.92685699462891 40.01897048950195 41.26091766357422 40.51658630371094 38.99999618530273 L 45.08169555664062 38.99999618530273 C 45.24396514892578 38.99999618530273 45.41704940795898 38.99999618530273 45.57931518554688 39.01081466674805 C 46.75845336914062 39.0865364074707 47.90514373779297 39.38943481445312 48.95446395874023 39.90869140625 L 51.45337677001953 41.16355514526367 L 51.45337677001953 58.47202301025391 L 50.39323425292969 59.18599700927734 C 48.96528625488281 60.12714385986328 47.29934310913086 60.63558197021484 45.59013366699219 60.63558197021484 L 43.88092041015625 60.63558197021484 L 43.88092041015625 58.47202301025391 C 43.88092041015625 57.87704849243164 43.64292907714844 57.33615875244141 43.24267196655273 56.94671630859375 C 42.85322952270508 56.54645919799805 42.31233978271484 56.30846405029297 41.71736526489258 56.30846405029297 C 40.52740859985352 56.30846405029297 39.55380630493164 57.28207015991211 39.55380630493164 58.47202301025391 C 39.55380630493164 57.87704849243164 39.31581115722656 57.33615875244141 38.91555404663086 56.94671630859375 C 38.52611541748047 56.54645919799805 37.98522567749023 56.30846405029297 37.3902473449707 56.30846405029297 C 36.20029067993164 56.30846405029297 35.22668838500977 57.28207015991211 35.22668838500977 58.47202301025391 C 35.22668838500977 57.87704849243164 34.98869705200195 57.33615875244141 34.58843612670898 56.94671630859375 Z" fill="rgb(240,208,180)" stroke="none" stroke-width="0"/></g></g><g transform="matrix(1 0 0 1 60.47146224975586 19.472026824951172)"><g transform="matrix(1 0 0 1 -56.900001525878906 -19)"><path d="M 58.08995819091797 19.00000190734863 C 58.79311370849609 19.00000190734863 59.44218444824219 19.22717475891113 59.97225952148438 19.60579681396484 C 60.79441070556641 20.1899585723877 61.33529663085938 21.15274238586426 61.33529663085938 22.24533843994141 C 61.33529663085938 23.14321517944336 60.96749114990234 23.95454978942871 60.38333129882812 24.53870964050293 C 59.79917144775391 25.12286949157715 58.98783111572266 25.49067497253418 58.08995819091797 25.49067497253418 L 56.90000152587891 25.49067497253418 C 56.97572326660156 25.14450645446777 57.0081787109375 24.77670097351074 57.0081787109375 24.40889549255371 L 57.0081787109375 19.1947193145752 C 57.0081787109375 19.12981414794922 57.0081787109375 19.06490516662598 56.99736022949219 19 L 57.0081787109375 19 L 58.08995819091797 19.00000190734863 Z" fill="rgb(240,208,180)" stroke="none" stroke-width="0"/></g></g><g transform="matrix(1 0 0 1 47.59828567504883 15.144912719726562)"><g transform="matrix(1 0 0 1 -45 -15)"><path d="M 57.98134994506836 19.52183723449707 L 57.98134994506836 24.73601341247559 C 57.98134994506836 25.10381889343262 57.94889831542969 25.47162437438965 57.87317657470703 25.81779289245605 C 57.37555694580078 28.28425025939941 55.19036483764648 30.1449089050293 52.57245635986328 30.1449089050293 L 51.49067687988281 30.1449089050293 L 50.40889739990234 30.1449089050293 C 47.79099273681641 30.1449089050293 45.60579681396484 28.28425025939941 45.10817718505859 25.81779289245605 C 45.03245162963867 25.47162437438965 45 25.10381889343262 45 24.73601341247559 L 45 19.32711791992188 L 45 17.16355895996094 C 47.13110733032227 17.16355895996094 49.24057388305664 16.66594123840332 51.14450836181641 15.71397399902344 L 51.68539810180664 15.44352912902832 C 52.26955795288086 15.15144920349121 52.90781021118164 15 53.56769561767578 15 C 54.97400665283203 15 56.282958984375 15.70315551757812 57.06184005737305 16.8714771270752 L 57.2781982421875 17.18519401550293 C 57.70009231567383 17.82344436645508 57.93808364868164 18.55905532836914 57.97053527832031 19.32711791992188 C 57.98134994506836 19.39202308654785 57.98134994506836 19.45693206787109 57.98134994506836 19.52183723449707 Z" fill="rgb(240,208,180)" stroke="none" stroke-width="0"/></g></g><g transform="matrix(1 0 0 1 43.28199005126953 19.472026824951172)"><g transform="matrix(1 0 0 1 -41.01000213623047 -19)"><path d="M 45.43447494506836 25.49067687988281 L 44.2445182800293 25.49067687988281 C 43.34664154052734 25.49067687988281 42.53530502319336 25.12287139892578 41.95114898681641 24.53871154785156 C 41.42107391357422 24.01945877075195 41.08572769165039 23.3163013458252 41.01000213623047 22.34269905090332 C 41.01000213623047 22.27779388427734 41.01000213623047 22.2128849029541 41.01000213623047 22.1587963104248 C 41.02081680297852 22.01816558837891 41.03163909912109 21.88835144042969 41.04245376586914 21.75853729248047 C 41.05326843261719 21.69363212585449 41.06409072875977 21.61790657043457 41.07490539550781 21.54218101501465 C 41.38862228393555 20.09259605407715 42.68675994873047 19 44.2445182800293 19 L 45.32629776000977 19 L 45.32629776000977 24.40889549255371 C 45.32629776000977 24.77670097351074 45.35874938964844 25.14450645446777 45.43447494506836 25.49067497253418 Z" fill="rgb(240,208,180)" stroke="none" stroke-width="0"/></g></g><g transform="matrix(1 0 0 1 29.74892807006836 21.635587692260742)"><g transform="matrix(1 0 0 1 -28.5 -21)"><path d="M 33.64926910400391 21.47598457336426 C 33.8115348815918 21.83297157287598 33.90889739990234 22.21159362792969 33.90889739990234 22.6226692199707 C 33.90889739990234 24.11552429199219 32.69730377197266 25.32711791992188 31.20444869995117 25.32711791992188 C 29.71159362792969 25.32711791992188 28.5 24.11552429199219 28.5 22.6226692199707 C 28.5 22.21159362792969 28.59736061096191 21.83297157287598 28.75962829589844 21.47598457336426 C 29.51687431335449 21.17308616638184 30.33902740478516 21 31.20444869995117 21 C 32.06986999511719 21 32.89202499389648 21.17308616638184 33.64926910400391 21.47598457336426 Z" fill="rgb(240,208,180)" stroke="none" stroke-width="0"/></g></g><g transform="matrix(1 0 0 1 25.96270179748535 6.479860782623291)"><g transform="matrix(1 0 0 1 -25 -6.989999771118164)"><path d="M 37.98135375976562 10.74377346038818 L 37.98135375976562 16.73683166503906 C 37.98135375976562 19.72254180908203 35.55816650390625 22.14572715759277 32.57245635986328 22.14572715759277 L 31.49067497253418 22.14572715759277 L 30.40889549255371 22.14572715759277 C 27.42318534851074 22.14572715759277 25 19.72254180908203 25 16.73683166503906 L 25 11.32793426513672 C 25 10.13797664642334 25.97360038757324 9.164376258850098 27.16355895996094 9.164376258850098 L 28.24533653259277 9.164376258850098 C 30.01945304870605 9.164376258850098 31.58803367614746 8.309770584106445 32.57245635986328 6.989999771118164 L 35.37426376342773 7.563342571258545 C 36.88875579833984 7.866240978240967 37.98135375976562 9.196828842163086 37.98135375976562 10.74377250671387 Z" fill="rgb(240,208,180)" stroke="none" stroke-width="0"/></g></g><g transform="matrix(1 0 0 1 17.200288772583008 19.472028732299805)"><g transform="matrix(1 0 0 1 -16.899999618530273 -19)"><path d="M 21.32447814941406 22.15879440307617 L 21.32447814941406 22.34269714355469 C 21.24875259399414 23.31629943847656 20.91340255737305 24.01945495605469 20.38332939147949 24.53871154785156 C 19.79916763305664 25.12287139892578 18.98783302307129 25.49067687988281 18.08995819091797 25.49067687988281 L 16.89999961853027 25.49067687988281 C 16.9757251739502 25.14450836181641 17.0081787109375 24.77670288085938 17.0081787109375 24.40889739990234 L 17.0081787109375 19 L 18.08995819091797 19 C 19.64772033691406 19 20.94585418701172 20.09259796142578 21.25957107543945 21.54218292236328 C 21.27038955688477 21.61790466308594 21.28120803833008 21.69363021850586 21.29202461242676 21.75853729248047 C 21.30284309387207 21.88835144042969 21.31366157531738 22.01816558837891 21.3244800567627 22.15879821777344 Z" fill="rgb(240,208,180)" stroke="none" stroke-width="0"/></g></g><g transform="matrix(1 0 0 1 4.327116966247559 14.063133239746094)"><g transform="matrix(1 0 0 1 -5.000000476837158 -14)"><path d="M 17.98135185241699 19.40889739990234 L 17.98135185241699 24.81779289245605 C 17.98135185241699 25.18559837341309 17.94889831542969 25.55340385437012 17.87317276000977 25.89957237243652 C 17.37555503845215 28.36602973937988 15.1903600692749 30.22668838500977 12.57245445251465 30.22668838500977 L 11.49067497253418 30.22668838500977 L 10.40889644622803 30.22668838500977 C 7.790990352630615 30.22668838500977 5.605796337127686 28.36602973937988 5.10817813873291 25.89957237243652 C 5.032453536987305 25.55340385437012 5.000000476837158 25.18559837341309 5.000000476837158 24.81779289245605 L 5.000000476837158 19.40889739990234 L 5.000000476837158 17.24533843994141 C 7.077016353607178 17.24533843994141 9.067489624023438 16.42318534851074 10.53870964050293 14.95196723937988 L 11.49067497253418 14 L 12.44264125823975 14.95196723937988 C 13.91386032104492 16.42318534851074 15.90433406829834 17.24533843994141 17.98135185241699 17.24533843994141 L 17.98135185241699 19.40889739990234 Z" fill="rgb(240,208,180)" stroke="none" stroke-width="0"/></g></g><g transform="matrix(1 0 0 1 1.2895813483737584e-07 19.472028732299805)"><g transform="matrix(1 0 0 1 -1.0000001192092896 -19)"><path d="M 5.435295104980469 25.49067687988281 L 4.24533748626709 25.49067687988281 C 3.347460985183716 25.49067687988281 2.536126613616943 25.12287139892578 1.951965808868408 24.53871154785156 C 1.367805123329163 23.95455169677734 1.00000011920929 23.14321517944336 1.00000011920929 22.24533843994141 C 1.00000011920929 21.31500625610352 1.389440655708313 20.48204040527344 2.016872644424438 19.88705825805664 C 2.590215444564819 19.34616851806641 3.379914283752441 19 4.24533748626709 19 L 5.327116966247559 19 L 5.327116966247559 24.40889739990234 C 5.327116966247559 24.77670288085938 5.359570503234863 25.14450836181641 5.435295104980469 25.49067687988281 Z" fill="rgb(240,208,180)" stroke="none" stroke-width="0"/></g></g></g><g transform="matrix(1 0 0 1 2.384185791015625e-06 0)"><g transform="matrix(1 0 0 1 0.6542312502861023 1.8809223175048828)"><path d="M 14.49067497253418 23 L 12.32711696624756 23 C 12.32711696624756 23.59606170654297 11.84139728546143 24.08177947998047 11.24533748626709 24.08177947998047 C 10.64927768707275 24.08177947998047 10.16355895996094 23.59606170654297 10.16355895996094 23 L 8 23 C 8 24.78926277160645 9.456074714660645 26.24533843994141 11.24533748626709 26.24533843994141 C 13.03460121154785 26.24533843994141 14.49067497253418 24.78926277160645 14.49067497253418 23 Z" fill="rgb(0,0,0)" stroke="none" stroke-width="0"/></g><g transform="matrix(1 0 0 1 2.289815902709961 1.2266883850097656)"><path d="M 34.49067687988281 15 L 32.32711791992188 15 C 32.32711791992188 15.59605979919434 31.84140014648438 16.08177947998047 31.24533843994141 16.08177947998047 C 30.64927673339844 16.08177947998047 30.16355895996094 15.59605979919434 30.16355895996094 15 L 28 15 C 28 16.78926277160645 29.45607566833496 18.24533843994141 31.24533843994141 18.24533843994141 C 33.03459930419922 18.24533843994141 34.49067687988281 16.78926277160645 34.49067687988281 15 Z" fill="rgb(0,0,0)" stroke="none" stroke-width="0"/></g><g transform="matrix(1 0 0 1 -2.3841860183893004e-06 0)"><path d="M 62.36457443237305 28.12626075744629 L 62.74319458007812 28.12626075744629 C 65.12960052490234 28.12626075744629 67.0703125 26.185546875 67.0703125 23.79914283752441 C 67.0703125 22.71844482421875 66.65815734863281 21.74159812927246 66.00043487548828 20.9821891784668 C 66.69061279296875 19.75004386901855 67.0703125 18.37834739685059 67.0703125 16.94823455810547 C 67.0703125 12.37447166442871 63.35007476806641 8.654233932495117 58.77630996704102 8.654233932495117 L 51.56409072875977 8.654233932495117 C 49.15713119506836 8.654233932495117 46.94380950927734 9.705723762512207 45.40876770019531 11.40303516387939 C 45.14589309692383 5.072463035583496 39.92847442626953 0 33.53516006469727 0 C 27.14076232910156 0 21.92334175109863 5.073544502258301 21.66046905517578 11.40303516387939 C 20.12542343139648 9.705723762512207 17.9110221862793 8.654233932495117 15.5051441192627 8.654233932495117 L 8.294003486633301 8.654233932495117 C 3.720240831375122 8.654233932495117 2.3841860183893e-06 12.37447261810303 2.3841860183893e-06 16.94823455810547 L 2.3841860183893e-06 17.21976280212402 C 2.3841860183893e-06 18.11223030090332 0.1427972465753555 18.99496078491211 0.4262233972549438 19.84307670593262 L 0.8816524744033813 21.21044540405273 C 0.3353539407253265 21.93415641784668 2.3841860183893e-06 22.82446098327637 2.3841860183893e-06 23.79914283752441 C 2.3841860183893e-06 26.185546875 1.940714359283447 28.12626075744629 4.32711935043335 28.12626075744629 L 4.705742359161377 28.12626075744629 C 5.232568740844727 29.6093807220459 6.279730796813965 30.84585380554199 7.633037090301514 31.61175346374512 C 5.639317989349365 32.97695922851562 4.327119827270508 35.26816940307617 4.327119827270508 37.86227416992188 L 4.327119827270508 41.10761260986328 L 2.900018444051966e-06 41.10761260986328 L 2.900018444051966e-06 64.90675354003906 L 11.89957427978516 64.90675354003906 C 13.16417407989502 64.90675354003906 14.24919891357422 64.17330932617188 14.7846794128418 63.11532974243164 L 17.52266311645508 64.21009063720703 C 18.67908477783203 64.67201232910156 19.89500427246094 64.90676116943359 21.13905143737793 64.90676116943359 L 27.2446117401123 64.90676116943359 C 27.69246864318848 66.16270446777344 28.88242530822754 67.07032012939453 30.29090118408203 67.07032012939453 C 31.12495422363281 67.07032012939453 31.87895393371582 66.74470520019531 32.45446014404297 66.22653198242188 C 33.02996826171875 66.74578094482422 33.78396606445312 67.07032012939453 34.61801528930664 67.07032012939453 C 35.45206451416016 67.07032012939453 36.2060661315918 66.74470520019531 36.78157424926758 66.22653198242188 C 37.35708236694336 66.74578094482422 38.111083984375 67.07032012939453 38.94513320922852 67.07032012939453 C 39.7791862487793 67.07032012939453 40.53318405151367 66.74470520019531 41.10869216918945 66.22653198242188 C 41.68420028686523 66.74578094482422 42.43819808959961 67.07032012939453 43.27225112915039 67.07032012939453 C 44.68072891235352 67.07032012939453 45.87068557739258 66.16270446777344 46.31854248046875 64.90676116943359 L 47.14286041259766 64.90676116943359 C 49.02082824707031 64.90676116943359 50.83713912963867 64.36154174804688 52.41220474243164 63.34574890136719 C 52.98122024536133 64.27824401855469 54.0002555847168 64.90676116943359 55.17074203491211 64.90676116943359 L 67.0703125 64.90676116943359 L 67.0703125 41.10761642456055 L 62.74319458007812 41.10761642456055 L 62.74319458007812 37.86227798461914 C 62.74319458007812 35.26817321777344 61.43099594116211 32.97696304321289 59.43727874755859 31.61175727844238 C 60.79058456420898 30.84585762023926 61.83774948120117 29.60938453674316 62.36457443237305 28.12626457214355 Z M 62.74319458007812 25.96270179748535 L 62.74319458007812 21.63558578491211 C 63.93639755249023 21.63558578491211 64.90675354003906 22.6059398651123 64.90675354003906 23.79914283752441 C 64.90675354003906 24.99234580993652 63.93639755249023 25.96270179748535 62.74319458007812 25.96270179748535 Z M 47.59828567504883 41.16386413574219 C 47.27807998657227 41.13249588012695 46.9578742980957 41.10761642456055 46.6365852355957 41.10761642456055 L 43.27117156982422 41.10761642456055 C 43.27117156982422 39.91441345214844 42.30081558227539 38.94405746459961 41.10761260986328 38.94405746459961 L 41.10761260986328 30.28982353210449 L 42.97259902954102 30.28982353210449 C 44.17661666870117 30.28982353210449 45.28652191162109 29.62777519226074 45.86743927001953 28.56005859375 C 45.99184417724609 28.33180236816406 46.07405853271484 28.09489440917969 46.14004516601562 27.85473823547363 C 46.59763717651367 28.02025032043457 47.08443832397461 28.12626457214355 47.59828186035156 28.12626457214355 L 47.97690200805664 28.12626457214355 C 48.50373077392578 29.60938453674316 49.55089569091797 30.84585762023926 50.90419769287109 31.61175727844238 C 48.91048049926758 32.97696304321289 47.59828186035156 35.26817321777344 47.59828186035156 37.86227798461914 L 47.59828567504883 41.16386413574219 Z M 19.47202682495117 21.63558769226074 C 20.48457336425781 21.63558769226074 21.32944107055664 22.33658027648926 21.56418800354004 23.27664566040039 C 21.5944766998291 23.46271324157715 21.61394882202148 23.67906761169434 21.62260437011719 23.92030334472656 C 21.55877876281738 25.05617141723633 20.62412261962891 25.96270370483398 19.47202682495117 25.96270370483398 L 19.47202682495117 21.63558769226074 Z M 19.09340286254883 28.12626266479492 L 19.47202682495117 28.12626266479492 C 19.98587226867676 28.12626266479492 20.47267150878906 28.02024841308594 20.93026351928711 27.8558177947998 C 20.99625396728516 28.09489059448242 21.07954978942871 28.33288192749023 21.20287322998047 28.56113815307617 C 21.78487014770508 29.62777328491211 22.8936939239502 30.28982162475586 24.09771537780762 30.28982162475586 L 25.96270179748535 30.28982162475586 L 25.96270179748535 38.94405364990234 L 22.50749778747559 38.94405364990234 C 21.47223472595215 38.94405364990234 20.44779205322266 39.11713790893555 19.47202682495117 39.43842697143555 L 19.47202682495117 37.86227416992188 C 19.47202682495117 35.26816940307617 18.15982818603516 32.97695922851562 16.16610908508301 31.61175346374512 C 17.5194149017334 30.84585380554199 18.56657791137695 29.6093807220459 19.09340286254883 28.12626075744629 Z M 32.45337677001953 21.63558769226074 C 30.06697273254395 21.63558769226074 28.12626075744629 19.69487380981445 28.12626075744629 17.30846977233887 L 28.12626075744629 11.89957332611084 C 28.12626075744629 11.3035135269165 28.61197853088379 10.81779479980469 29.20804023742676 10.81779479980469 L 30.28981781005859 10.81779479980469 C 32.16021347045898 10.81779479980469 33.84887313842773 10.02268695831299 35.03450393676758 8.752677917480469 L 37.20779800415039 9.190797805786133 C 38.21385192871094 9.393091201782227 38.94405364990234 10.2844762802124 38.94405364990234 11.31108474731445 L 38.94405364990234 17.30846977233887 C 38.94405364990234 19.69487380981445 37.00334167480469 21.63558769226074 34.61693572998047 21.63558769226074 L 32.45337677001953 21.63558769226074 Z M 35.1578254699707 24.34003448486328 C 35.1578254699707 25.23466682434082 34.42978668212891 25.96270370483398 33.53515625 25.96270370483398 C 32.64052581787109 25.96270370483398 31.9124870300293 25.23466682434082 31.9124870300293 24.34003448486328 C 31.9124870300293 24.24808502197266 31.92763328552246 24.15721321105957 31.9438591003418 24.06526374816895 C 32.45013046264648 23.90840530395508 32.9780387878418 23.79914474487305 33.53515625 23.79914474487305 C 34.0922737121582 23.79914474487305 34.62017822265625 23.90840530395508 35.1264533996582 24.06526374816895 C 35.14268112182617 24.15721321105957 35.1578254699707 24.24808502197266 35.1578254699707 24.34003448486328 Z M 29.87333297729492 25.2530574798584 C 30.28440856933594 26.8984432220459 31.7642822265625 28.12626266479492 33.53515625 28.12626266479492 C 35.3060302734375 28.12626266479492 36.78590393066406 26.8984432220459 37.19697570800781 25.2530574798584 C 38.26469421386719 26.24180221557617 38.94405364990234 27.64162445068359 38.94405364990234 29.20804214477539 L 38.94405364990234 38.94405364990234 L 28.12626075744629 38.94405364990234 L 28.12626075744629 29.20804023742676 C 28.12626075744629 27.64162254333496 28.80561828613281 26.24180030822754 29.87333297729492 25.25305366516113 Z M 47.59828567504883 25.96270370483398 C 46.44619369506836 25.96270370483398 45.51153182983398 25.05617332458496 45.44662857055664 23.92030334472656 C 45.45528411865234 23.6779842376709 45.47475814819336 23.46271133422852 45.50504684448242 23.27664566040039 C 45.74087142944336 22.33658027648926 46.58574295043945 21.63558769226074 47.59828948974609 21.63558769226074 L 47.59828567504883 25.96270370483398 Z M 23.79914283752441 11.89957332611084 C 23.79914283752441 6.531785011291504 28.16736793518066 2.163560628890991 33.53515625 2.163560628890991 C 38.9029426574707 2.163560628890991 43.27117156982422 6.531785011291504 43.27117156982422 11.89957332611084 L 43.27117156982422 14.06313228607178 C 43.27117156982422 15.54625225067139 43.60543823242188 16.32513236999512 43.89968490600586 17.01206207275391 C 44.1528205871582 17.60271263122559 44.35294723510742 18.07004356384277 44.35294723510742 19.1096305847168 C 44.35294723510742 20.15030288696289 44.15281677246094 20.61763191223145 43.89968490600586 21.20828437805176 C 43.70388412475586 21.6658763885498 43.49293518066406 22.16998481750488 43.37177658081055 22.89045143127441 C 43.3609619140625 22.93913078308105 43.35771560668945 22.9888916015625 43.34906005859375 23.03865432739258 C 43.32201385498047 23.23012924194336 43.29929733276367 23.43350219726562 43.28631973266602 23.65959358215332 C 43.28415679931641 23.70611000061035 43.27117538452148 23.75154495239258 43.27117538452148 23.79914283752441 C 43.27117538452148 23.82618713378906 43.27874755859375 23.8510684967041 43.27874755859375 23.87811279296875 C 43.27658462524414 23.97114753723145 43.27117538452148 24.05876922607422 43.27117538452148 24.15829467773438 C 43.27117538452148 25.06049919128418 43.48536682128906 25.81341743469238 43.94620513916016 26.52630805969238 C 44.22314071655273 26.95469284057617 44.05329895019531 27.36793327331543 43.96784210205078 27.5247917175293 C 43.80881881713867 27.81578826904297 43.46481323242188 28.12626075744629 42.97260665893555 28.12626075744629 L 41.02107620239258 28.12626075744629 C 40.7127685546875 25.98541831970215 39.5130729675293 24.12908554077148 37.80169677734375 22.95751953125 C 39.77269744873047 21.84220504760742 41.10761642456055 19.72949028015137 41.10761642456055 17.30846786499023 L 41.10761642456055 11.31108283996582 C 41.10761642456055 9.258947372436523 39.647216796875 7.475093841552734 37.63510513305664 7.069426536560059 L 36.29153442382812 6.798981666564941 C 36.60633087158203 6.036327362060547 36.78049850463867 5.20227575302124 36.78049850463867 4.327116012573242 L 34.61693954467773 4.327116012573242 C 34.61693954467773 6.713521480560303 32.67622756958008 8.654232978820801 30.28982353210449 8.654232978820801 L 29.20804405212402 8.654232978820801 C 27.41878128051758 8.654232978820801 25.96270561218262 10.11030769348145 25.96270561218262 11.89957046508789 L 25.96270561218262 17.3084659576416 C 25.96270561218262 19.72948837280273 27.29762077331543 21.84220314025879 29.26862335205078 22.95751953125 C 27.55833053588867 24.12908554077148 26.3575553894043 25.98541831970215 26.04924774169922 28.12626075744629 L 24.09880065917969 28.12626075744629 C 23.60659217834473 28.12626075744629 23.2625846862793 27.81578826904297 23.10464477539062 27.5258731842041 C 23.01810264587402 27.36793327331543 22.84934425354004 26.95577430725098 23.12628173828125 26.52738952636719 C 23.5849552154541 25.81341552734375 23.79914665222168 25.06157875061035 23.79914665222168 24.15829277038574 C 23.79914665222168 24.05876922607422 23.79373931884766 23.97114372253418 23.79157447814941 23.87811088562012 C 23.79157447814941 23.85106658935547 23.79914665222168 23.82618522644043 23.79914665222168 23.79914093017578 C 23.79914665222168 23.75154304504395 23.78616714477539 23.70610809326172 23.78508377075195 23.65851020812988 C 23.77210426330566 23.43350028991699 23.7493839263916 23.23012542724609 23.72233963012695 23.03757095336914 C 23.71368598937988 22.98888969421387 23.70936012268066 22.93804740905762 23.69962310791016 22.88936805725098 C 23.57846450805664 22.16890144348145 23.36751747131348 21.66587448120117 23.17171287536621 21.20720100402832 C 22.91749382019043 20.61654853820801 22.71736526489258 20.14921951293945 22.71736526489258 19.1096305847168 C 22.71736526489258 18.07004356384277 22.91749382019043 17.60271263122559 23.17063140869141 17.01314353942871 C 23.46487617492676 16.32513236999512 23.79914474487305 15.54625129699707 23.79914474487305 14.06313133239746 L 23.79914283752441 11.89957332611084 Z M 2.1635582447052 23.79914474487305 C 2.1635582447052 22.60594177246094 3.133914232254028 21.63558769226074 4.327116966247559 21.63558769226074 L 4.327116966247559 25.96270370483398 C 3.133913993835449 25.96270370483398 2.1635582447052 24.99234771728516 2.1635582447052 23.79914474487305 Z M 5.408896446228027 17.30846977233887 L 4.327116966247559 17.30846977233887 L 4.327116966247559 19.4720287322998 C 3.748364686965942 19.4720287322998 3.196657419204712 19.59102439880371 2.691466331481934 19.79764366149902 L 2.478355884552002 19.1583137512207 C 2.269572496414185 18.53196334838867 2.163558006286621 17.87965202331543 2.163558006286621 17.21976470947266 L 2.163558006286621 16.94823837280273 C 2.163558006286621 13.56767845153809 4.913441181182861 10.817795753479 8.294001579284668 10.817795753479 L 15.50622367858887 10.817795753479 C 18.32101249694824 10.817795753479 20.77124404907227 12.76716136932373 21.44194602966309 15.47593784332275 C 21.36838340759277 15.71068382263184 21.28184127807617 15.92920303344727 21.18339920043945 16.15962219238281 C 20.8880729675293 16.8465518951416 20.55380439758301 17.62543296813965 20.55380439758301 19.10963249206543 C 20.55380439758301 19.29353523254395 20.55921173095703 19.46661949157715 20.56894874572754 19.63105201721191 C 20.21628761291504 19.53693580627441 19.85280990600586 19.47203063964844 19.47202491760254 19.47203063964844 L 19.47202491760254 17.3084716796875 L 18.39024543762207 17.3084716796875 C 16.5869197845459 17.3084716796875 14.89068984985352 16.60639762878418 13.61527156829834 15.330979347229 L 11.89956951141357 13.61527824401855 L 10.18386745452881 15.33098030090332 C 8.908449172973633 16.60639762878418 7.212219715118408 17.3084716796875 5.408893585205078 17.3084716796875 Z M 10.81779289245605 30.28982162475586 C 8.431386947631836 30.28982162475586 6.490675449371338 28.34910774230957 6.490675449371338 25.96270370483398 L 6.490675449371338 19.4071216583252 C 8.462759017944336 19.17021179199219 10.28772068023682 18.28639984130859 11.71350574493408 16.8606128692627 L 11.89957141876221 16.67454719543457 L 12.08563804626465 16.8606128692627 C 13.5114221572876 18.28639984130859 15.33638477325439 19.17021179199219 17.30846786499023 19.4071216583252 L 17.30846786499023 25.96270370483398 C 17.30846786499023 28.34910774230957 15.36775588989258 30.28982162475586 12.98135089874268 30.28982162475586 L 10.81779289245605 30.28982162475586 Z M 6.490675449371338 37.86227416992188 C 6.490675449371338 34.87980651855469 8.917106628417969 32.45337677001953 11.89957141876221 32.45337677001953 C 14.88203716278076 32.45337677001953 17.30846786499023 34.87980651855469 17.30846786499023 37.86227416992188 L 17.30846786499023 40.45745849609375 C 17.00448799133301 40.64893341064453 16.70808029174805 40.85122680664062 16.42573547363281 41.07732009887695 L 14.59212017059326 42.54421234130859 C 14.00904178619385 41.67879104614258 13.02029514312744 41.10761260986328 11.89957141876221 41.10761260986328 L 6.490675449371338 41.10761260986328 L 6.490675449371338 37.86227416992188 Z M 12.98135089874268 61.66141510009766 C 12.98135089874268 62.25747680664062 12.49563121795654 62.74319458007812 11.89957141876221 62.74319458007812 L 2.1635582447052 62.74319458007812 L 2.1635582447052 43.27117156982422 L 11.89957141876221 43.27117156982422 C 12.49563121795654 43.27117156982422 12.98135089874268 43.75688934326172 12.98135089874268 44.35294723510742 L 12.98135089874268 61.66141510009766 Z M 18.3264217376709 62.20122528076172 L 15.1449089050293 60.92905426025391 L 15.1449089050293 44.87220764160156 L 17.77687835693359 42.76598358154297 C 19.11395835876465 41.69718551635742 20.79504203796387 41.10761642456055 22.50749778747559 41.10761642456055 L 41.10761260986328 41.10761642456055 C 41.10761260986328 42.21319198608398 40.66083908081055 43.23764038085938 39.84841918945312 43.98947525024414 C 39.03708267211914 44.74131393432617 37.98018264770508 45.11019897460938 36.87893676757812 45.02365875244141 L 27.94452285766602 44.33564758300781 L 21.70806503295898 47.00872421264648 C 20.35043334960938 47.59071731567383 19.4720287322998 48.92238998413086 19.4720287322998 50.39901733398438 C 19.4720287322998 51.92973709106445 20.40993118286133 53.24409866333008 21.74809265136719 53.80229568481445 C 21.68102073669434 54.09329605102539 21.63558769226074 54.39294815063477 21.63558769226074 54.70882797241211 C 21.63558769226074 56.24603652954102 22.57673645019531 57.56688690185547 23.91164970397949 58.12833023071289 C 23.84566116333008 58.41825103759766 23.79914474487305 58.7189826965332 23.79914474487305 59.03594589233398 C 23.79914474487305 60.92148590087891 25.22060203552246 62.46626663208008 27.04448318481445 62.69668579101562 L 27.04448318481445 62.74319839477539 L 21.13905143737793 62.74319839477539 C 20.17085838317871 62.74319839477539 19.22538375854492 62.56146240234375 18.32642364501953 62.20122909545898 Z M 30.28981781005859 64.90675354003906 C 29.69375801086426 64.90675354003906 29.20804023742676 64.42103576660156 29.20804023742676 63.82497406005859 L 29.20804023742676 61.66141510009766 C 29.20804023742676 61.06535720825195 29.69375801086426 60.57963562011719 30.28981781005859 60.57963562011719 C 30.88587951660156 60.57963562011719 31.37159729003906 61.06535720825195 31.37159729003906 61.66141510009766 L 31.37159729003906 63.82497406005859 C 31.37159729003906 64.42103576660156 30.88587951660156 64.90675354003906 30.28981781005859 64.90675354003906 Z M 34.61693572998047 64.90675354003906 C 34.0208740234375 64.90675354003906 33.53515625 64.42103576660156 33.53515625 63.82497406005859 L 33.53515625 61.66141510009766 C 33.53515625 61.06535720825195 34.0208740234375 60.57963562011719 34.61693572998047 60.57963562011719 C 35.21299743652344 60.57963562011719 35.69871520996094 61.06535720825195 35.69871520996094 61.66141510009766 L 35.69871520996094 63.82497406005859 C 35.69871520996094 64.42103576660156 35.21299362182617 64.90675354003906 34.61693572998047 64.90675354003906 Z M 38.94405364990234 64.90675354003906 C 38.34799194335938 64.90675354003906 37.86227416992188 64.42103576660156 37.86227416992188 63.82497406005859 L 37.86227416992188 61.66141510009766 C 37.86227416992188 61.06535720825195 38.34799194335938 60.57963562011719 38.94405364990234 60.57963562011719 C 39.54011154174805 60.57963562011719 40.02583312988281 61.06535720825195 40.02583312988281 61.66141510009766 L 40.02583312988281 63.82497406005859 C 40.02583312988281 64.42103576660156 39.54011154174805 64.90675354003906 38.94405364990234 64.90675354003906 Z M 44.35294723510742 63.82497406005859 C 44.35294723510742 64.42103576660156 43.86722946166992 64.90675354003906 43.27117156982422 64.90675354003906 C 42.67510986328125 64.90675354003906 42.18939208984375 64.42103576660156 42.18939208984375 63.82497406005859 L 42.18939208984375 61.66141510009766 C 42.18939208984375 61.06535720825195 42.67510986328125 60.57963562011719 43.27117156982422 60.57963562011719 C 43.86722946166992 60.57963562011719 44.35294723510742 61.06535720825195 44.35294723510742 61.66141510009766 L 44.35294723510742 63.82497406005859 Z M 47.14177322387695 62.74319458007812 L 46.51650619506836 62.74319458007812 L 46.51650619506836 61.66141510009766 C 46.51650619506836 59.87215423583984 45.06043243408203 58.41608047485352 43.27117156982422 58.41608047485352 C 42.43711853027344 58.41608047485352 41.68312072753906 58.74169158935547 41.10761260986328 59.25986480712891 C 40.5321044921875 58.7406120300293 39.77810287475586 58.41608047485352 38.94405364990234 58.41608047485352 C 38.11000061035156 58.41608047485352 37.35600280761719 58.74169158935547 36.78049468994141 59.25986480712891 C 36.20498657226562 58.7406120300293 35.45098876953125 58.41608047485352 34.61693572998047 58.41608047485352 C 33.78288269042969 58.41608047485352 33.02888488769531 58.74169158935547 32.45337677001953 59.25986480712891 C 31.87787055969238 58.7406120300293 31.12387084960938 58.41608047485352 30.28981781005859 58.41608047485352 C 28.89432334899902 58.41608047485352 27.71193885803223 59.3063850402832 27.25434684753418 60.54501724243164 C 26.5468635559082 60.41412353515625 25.96270179748535 59.78668975830078 25.96270179748535 58.95697021484375 C 25.96270179748535 58.73628616333008 26.02652740478516 58.52534103393555 26.11739540100098 58.32521057128906 C 26.42245674133301 58.25922012329102 26.72211074829102 58.16402816772461 27.0012092590332 58.02447509765625 L 32.93693161010742 55.05607223510742 L 31.9687385559082 53.12076950073242 L 26.03301620483398 56.08917236328125 C 25.81990432739258 56.19626617431641 25.58083343505859 56.25252151489258 25.34284019470215 56.25252151489258 C 24.49147987365723 56.25252151489258 23.79914093017578 55.5601806640625 23.79914093017578 54.62985229492188 C 23.79914093017578 54.40917205810547 23.86296653747559 54.19822311401367 23.95383453369141 53.99809265136719 C 24.25889587402344 53.93318557739258 24.55746841430664 53.83691024780273 24.83764839172363 53.69735717773438 L 30.77337074279785 50.72895812988281 L 29.80517768859863 48.79365158081055 L 23.86945533752441 51.76205444335938 C 23.65634346008301 51.86914825439453 23.41727256774902 51.9254035949707 23.16197204589844 51.9254035949707 C 22.32034873962402 51.9254035949707 21.63558197021484 51.24063873291016 21.63558197021484 50.39901351928711 C 21.63558197021484 49.78781127929688 21.99797821044922 49.2371826171875 22.56050300598145 48.99702453613281 L 28.30799674987793 46.5338134765625 L 36.71342086791992 47.18071746826172 C 38.40207672119141 47.31053161621094 40.07883453369141 46.72528839111328 41.31963348388672 45.57643890380859 C 42.01305389404297 44.93494415283203 42.53339385986328 44.13983535766602 42.86441802978516 43.27116394042969 L 46.63766098022461 43.27116394042969 C 47.80706787109375 43.27116394042969 48.97863388061523 43.54701995849609 50.02363204956055 44.07059860229492 L 51.92539978027344 45.021484375 L 51.92539978027344 61.08266067504883 L 51.34231948852539 61.47101974487305 C 50.09394454956055 62.30290985107422 48.64111328125 62.74319076538086 47.14176940917969 62.74319076538086 Z M 64.90675354003906 62.74319458007812 L 55.17074203491211 62.74319458007812 C 54.57468414306641 62.74319458007812 54.08896255493164 62.25747680664062 54.08896255493164 61.66141510009766 L 54.08896255493164 44.35294723510742 C 54.08896255493164 43.75688934326172 54.57468414306641 43.27117156982422 55.17074203491211 43.27117156982422 L 64.90675354003906 43.27117156982422 L 64.90675354003906 62.74319458007812 Z M 60.57963562011719 37.86227416992188 L 60.57963562011719 41.10761260986328 L 55.17074203491211 41.10761260986328 C 53.94400405883789 41.10761260986328 52.88602447509766 41.79994964599609 52.33539962768555 42.80708694458008 L 50.99182891845703 42.13530349731445 C 50.59589767456055 41.93733978271484 50.18265533447266 41.77507019042969 49.7629280090332 41.63335418701172 L 49.7629280090332 37.86227416992188 C 49.7629280090332 34.87980651855469 52.18935775756836 32.45337677001953 55.17182159423828 32.45337677001953 C 58.15428924560547 32.45337677001953 60.57963562011719 34.87980651855469 60.57963562011719 37.86227416992188 Z M 60.57963562011719 25.96270179748535 C 60.57963562011719 28.34910583496094 58.6389274597168 30.28981781005859 56.25252151489258 30.28981781005859 L 54.08896255493164 30.28981781005859 C 51.70255661010742 30.28981781005859 49.76184463500977 28.34910583496094 49.76184463500977 25.96270179748535 L 49.76184463500977 19.43199920654297 C 51.68632888793945 19.28920555114746 53.58593368530273 18.76886749267578 55.31137466430664 17.90669059753418 L 55.84793472290039 17.6384105682373 C 57.21746444702148 16.95364379882812 58.99916076660156 17.42746353149414 59.84727096557617 18.69963645935059 L 60.05497360229492 19.01119041442871 C 60.39789962768555 19.52719688415527 60.57963562011719 20.12650489807129 60.57963562011719 20.74636459350586 L 60.57963562011719 25.96270179748535 Z M 57.2455940246582 15.1449089050293 C 56.42884826660156 15.1449089050293 55.61102294921875 15.3374662399292 54.87974166870117 15.70310688018799 L 54.34318161010742 15.9713888168335 C 52.59394454956055 16.84654808044434 50.63592147827148 17.30846786499023 48.6800651550293 17.30846786499023 L 47.59828567504883 17.30846786499023 L 47.59828567504883 19.47202682495117 C 47.21749877929688 19.47202682495117 46.85402297973633 19.53693199157715 46.50136184692383 19.62996673583984 C 46.5110969543457 19.46661758422852 46.51650619506836 19.29353141784668 46.51650619506836 19.10962867736816 C 46.51650619506836 17.62542915344238 46.1822395324707 16.84762954711914 45.88799285888672 16.15961647033691 C 45.78955078125 15.92919731140137 45.70300674438477 15.71067905426025 45.62944793701172 15.47593212127686 C 46.30123138427734 12.76607513427734 48.74821853637695 10.81779003143311 51.56517028808594 10.81779003143311 L 58.77739334106445 10.81779003143311 C 62.1568717956543 10.81779003143311 64.90675354003906 13.56767272949219 64.90675354003906 16.94823265075684 C 64.90675354003906 17.93481636047363 64.67092895507812 18.88786315917969 64.22523498535156 19.75112342834473 C 63.76114654541016 19.5791187286377 63.26569366455078 19.47202491760254 62.74319458007812 19.47202491760254 L 62.57444000244141 19.47202491760254 C 62.42840194702148 18.88570022583008 62.19473266601562 18.32317352294922 61.85397338867188 17.81257438659668 L 61.64627075195312 17.49994087219238 C 60.66401672363281 16.02547645568848 59.01863098144531 15.14490699768066 57.2455940246582 15.14490699768066 Z" fill="rgb(0,0,0)" stroke="none" stroke-width="0"/></g><g transform="matrix(1 0 0 1 3.925400495529175 1.8809223175048828)"><path d="M 51.24533843994141 24.08177947998047 C 50.6492805480957 24.08177947998047 50.16355895996094 23.59606170654297 50.16355895996094 23 L 48 23 C 48 24.78926277160645 49.45607376098633 26.24533843994141 51.24533843994141 26.24533843994141 C 53.03459930419922 26.24533843994141 54.49067687988281 24.78926277160645 54.49067687988281 23 L 52.32711791992188 23 C 52.32711791992188 23.59606170654297 51.84139633178711 24.08177947998047 51.24533843994141 24.08177947998047 Z" fill="rgb(0,0,0)" stroke="none" stroke-width="0"/></g></g></g></g></svg>