<svg xmlns="http://www.w3.org/2000/svg" width="128.00" height="128.00" viewBox="0 0 128.00 128.00"><g transform="matrix(1 0 0 1 -72.74609375 -7992.0)"><g transform="matrix(1 0 0 1 72.74609375 7992)"><circle cx="64" cy="64" r="61.0" fill="rgb(255,233,248)" stroke="rgb(203,213,255)" stroke-width="6"/></g><g transform="matrix(1 0 0 1 99.81375122070312 8019.00927734375)"><g transform="matrix(1 0 0 1 1.0942028760910034 1.1525413990020752)"><g transform="matrix(1 0 0 1 0 7.371557235717773)"><g transform="matrix(1 0 0 1 2.792348861694336 22.091161727905273)"><g transform="matrix(1 0 0 1 -26.93500518798828 -211.86500549316406)"><path d="M 43.86922073364258 223.3131713867188 L 26.93500518798828 223.3131713867188 L 26.93500518798828 215.970458984375 C 26.93500518798828 213.7030639648438 28.77306175231934 211.8650054931641 31.04045677185059 211.8650054931641 L 39.76391220092773 211.8650054931641 C 42.03130722045898 211.8650054931641 43.86936187744141 213.7030639648438 43.86936187744141 215.970458984375 L 43.86936187744141 223.3131713867188 Z" fill="rgb(255,246,224)" stroke="none" stroke-width="0"/></g><g transform="matrix(1 0 0 1 -318.6325988769531 -211.86500549316406)"><path d="M 384.7242126464844 223.3131713867188 L 367.7900085449219 223.3131713867188 L 367.7900085449219 215.970458984375 C 367.7900085449219 213.7030639648438 369.6280517578125 211.8650054931641 371.8954467773438 211.8650054931641 L 380.618896484375 211.8650054931641 C 382.8862915039062 211.8650054931641 384.724365234375 213.7030639648438 384.724365234375 215.970458984375 L 384.724365234375 223.3131713867188 Z" fill="rgb(255,246,224)" stroke="none" stroke-width="0"/></g></g><g transform="matrix(1 0 0 1 7.5789408683776855 0)"><g transform="matrix(1 0 0 1 0 1.5349091291427612)"><g><g><g transform="matrix(1 0 0 1 -60.12499237060547 -149.24449157714844)"><path d="M 78.0194091796875 176.2893981933594 L 60.12499237060547 176.2893981933594 L 60.12499237060547 169.5346527099609 C 60.12499237060547 165.7665252685547 63.17967224121094 162.7119903564453 66.94765472412109 162.7119903564453 L 71.19674682617188 162.7119903564453 C 74.96487426757812 162.7119903564453 78.0194091796875 165.7666778564453 78.0194091796875 169.5346527099609 L 78.0194091796875 176.2893981933594 Z" fill="rgb(138,255,179)" stroke="none" stroke-width="0"/></g><g transform="matrix(1 0 0 1 -80.41217041015625 -69.3290023803711)"><path d="M 89.36536407470703 85.07025146484375 L 89.3533935546875 85.07025146484375 C 86.30347442626953 85.07025146484375 83.83100128173828 82.5977783203125 83.83100128173828 79.5478515625 L 83.83100128173828 74.85139465332031 C 83.83100128173828 71.80147552490234 86.30347442626953 69.32900238037109 89.3533935546875 69.32900238037109 L 89.36536407470703 69.32900238037109 C 92.415283203125 69.32900238037109 94.88775634765625 71.80147552490234 94.88775634765625 74.85139465332031 L 94.88775634765625 79.5478515625 C 94.88775634765625 82.5977783203125 92.415283203125 85.07025146484375 89.36536407470703 85.07025146484375 Z" fill="rgb(255,202,185)" stroke="none" stroke-width="0"/></g><g transform="matrix(1 0 0 1 -96.1020736694336 -69.32898712158203)"><path d="M 105.0552749633789 69.32898712158203 L 105.0433044433594 69.32898712158203 C 103.988639831543 69.32898712158203 103.0031967163086 69.62492370605469 102.1650009155273 70.13790893554688 C 103.7506790161133 71.10835266113281 104.808952331543 72.85612487792969 104.808952331543 74.85124206542969 L 104.808952331543 79.54769897460938 C 104.808952331543 81.54295349121094 103.7506790161133 83.29058837890625 102.1650009155273 84.26102447509766 C 103.0031967163086 84.77400970458984 103.988639831543 85.0699462890625 105.0433044433594 85.0699462890625 L 105.0552749633789 85.0699462890625 C 108.1051940917969 85.0699462890625 110.5776672363281 82.59747314453125 110.5776672363281 79.54754638671875 L 110.5776672363281 74.85108947753906 C 110.5776672363281 71.80146026611328 108.1051940917969 69.32898712158203 105.0552749633789 69.32898712158203 Z" fill="rgb(250,187,167)" stroke="none" stroke-width="0"/></g></g></g><g transform="matrix(1 0 0 1 -80.41217041015625 -69.3290023803711)"><path d="M 83.83100128173828 77.19955444335938 L 83.83100128173828 74.86293792724609 C 83.83100128173828 71.80667114257812 86.30606842041016 69.32900238037109 89.35930633544922 69.32900238037109 C 92.41255187988281 69.32900238037109 94.88761901855469 71.80667114257812 94.88761901855469 74.86293792724609 L 83.83100128173828 77.19955444335938 Z" fill="rgb(130,140,179)" stroke="none" stroke-width="0"/></g><g transform="matrix(1 0 0 1 -96.1020736694336 -69.32899475097656)"><path d="M 104.808952331543 74.86293029785156 L 104.808952331543 76.08200073242188 L 110.5776672363281 74.86293029785156 C 110.5776672363281 71.8065185546875 108.1026000976562 69.32899475097656 105.0493621826172 69.32899475097656 C 103.9922485351562 69.32899475097656 103.0047836303711 69.62637329101562 102.1650009155273 70.14151763916016 C 103.7506790161133 71.11427307128906 104.808952331543 72.86478424072266 104.808952331543 74.86293029785156 Z" fill="rgb(113,126,179)" stroke="none" stroke-width="0"/></g></g><g transform="matrix(1 0 0 1 38.62387466430664 0)"><g transform="matrix(1 0 0 1 -398.417236328125 -58.686004638671875)"><path d="M 413.6767883300781 77.6353759765625 C 411.80859375 77.6353759765625 410.2940063476562 76.12080383300781 410.2940063476562 74.25260162353516 L 410.2940063476562 62.06877899169922 C 410.2940063476562 60.20058059692383 411.80859375 58.68600463867188 413.6767883300781 58.68600463867188 C 415.5449829101562 58.68600463867188 417.0595703125 60.20058059692383 417.0595703125 62.06877899169922 L 417.0595703125 74.25274658203125 C 417.0595703125 76.12094116210938 415.5449829101562 77.6353759765625 413.6767883300781 77.6353759765625 Z" fill="rgb(130,140,179)" stroke="none" stroke-width="0"/></g><g transform="matrix(1 0 0 1 0 1.5349102020263672)"><g transform="matrix(1 0 0 1 0 5.522249698638916)"><g><g transform="matrix(1 0 0 1 -327.94097900390625 -154.76673889160156)"><path d="M 345.8355407714844 176.2893981933594 L 327.9409790039062 176.2893981933594 L 327.9409790039062 169.5346527099609 C 327.9409790039062 165.7665252685547 330.9956665039062 162.7119903564453 334.7636413574219 162.7119903564453 L 339.0127258300781 162.7119903564453 C 342.7808532714844 162.7119903564453 345.8353881835938 165.7666778564453 345.8353881835938 169.5346527099609 L 345.8353881835938 176.2893981933594 Z" fill="rgb(255,234,0)" stroke="none" stroke-width="0"/></g><g transform="matrix(1 0 0 1 -348.2290344238281 -107.62085723876953)"><path d="M 362.7047729492188 107.6210021972656 L 362.7047729492188 112.3174591064453 C 362.7047729492188 115.3673782348633 360.2322998046875 117.8398513793945 357.182373046875 117.8398513793945 L 357.17041015625 117.8398513793945 C 354.1204833984375 117.8398513793945 351.6480102539062 115.3673782348633 351.6480102539062 112.3174591064453 L 351.6480102539062 107.6210021972656 L 362.7047729492188 107.6210021972656 Z" fill="rgb(255,202,185)" stroke="none" stroke-width="0"/></g><g transform="matrix(1 0 0 1 -363.9189147949219 -107.6199951171875)"><path d="M 372.6259460449219 107.6201400756836 L 372.6259460449219 112.3165969848633 C 372.6259460449219 114.3118515014648 371.5676879882812 116.0594863891602 369.9819946289062 117.0299301147461 C 370.8201904296875 117.5429153442383 371.8056335449219 117.8388442993164 372.8603210449219 117.8388442993164 L 372.8722839355469 117.8388442993164 C 375.9222106933594 117.8388442993164 378.3946838378906 115.3663787841797 378.3946838378906 112.3164520263672 L 378.3946838378906 107.6199951171875 L 372.6259460449219 107.6199951171875 Z" fill="rgb(250,187,167)" stroke="none" stroke-width="0"/></g></g></g><g transform="matrix(1 0 0 1 -348.2290344238281 -69.3290023803711)"><path d="M 351.6480102539062 77.19955444335938 L 351.6480102539062 74.86293792724609 C 351.6480102539062 71.80667114257812 354.1230773925781 69.32900238037109 357.1763305664062 69.32900238037109 C 360.2295532226562 69.32900238037109 362.7046203613281 71.80667114257812 362.7046203613281 74.86293792724609 L 351.6480102539062 77.19955444335938 Z" fill="rgb(130,140,179)" stroke="none" stroke-width="0"/></g><g transform="matrix(1 0 0 1 -363.9189147949219 -69.32899475097656)"><path d="M 372.6259460449219 74.86293029785156 L 372.6259460449219 76.08200073242188 L 378.3946838378906 74.86293029785156 C 378.3946838378906 71.8065185546875 375.9196166992188 69.32899475097656 372.8663635253906 69.32899475097656 C 371.8092651367188 69.32899475097656 370.82177734375 69.62637329101562 369.9819946289062 70.14151763916016 C 371.5676879882812 71.11427307128906 372.6259460449219 72.86478424072266 372.6259460449219 74.86293029785156 Z" fill="rgb(113,126,179)" stroke="none" stroke-width="0"/></g></g></g></g><g transform="matrix(1 0 0 1 0 22.758747100830078)"><ellipse cx="35.83816146850586" cy="15.50790023803711" rx="35.83816146850586" ry="15.50790023803711" fill="rgb(204,139,102)" stroke="none" stroke-width="0"/></g><g transform="matrix(1 0 0 1 2.792349100112915 31.220304489135742)"><g transform="matrix(1 0 0 1 4.786591529846191 0)"><g><g><g><g transform="matrix(1 0 0 1 -60.12499237060547 -355.0815124511719)"><path d="M 78.0194091796875 381.5486450195312 L 60.12499237060547 388.1659545898438 L 60.12499237060547 375.3716430664062 C 60.12499237060547 371.603515625 63.17967224121094 368.5490112304688 66.94765472412109 368.5490112304688 L 71.19674682617188 368.5490112304688 C 74.96487426757812 368.5490112304688 78.0194091796875 371.6036682128906 78.0194091796875 375.3716430664062 L 78.0194091796875 381.5486450195312 Z" fill="rgb(255,89,172)" stroke="none" stroke-width="0"/></g><g transform="matrix(1 0 0 1 -80.41217041015625 -275.166015625)"><path d="M 89.36536407470703 297.6567993164062 L 89.3533935546875 297.6567993164062 C 86.30347442626953 297.6567993164062 83.83100128173828 295.184326171875 83.83100128173828 292.1343994140625 L 83.83100128173828 280.6884155273438 C 83.83100128173828 277.6384887695312 86.30347442626953 275.166015625 89.3533935546875 275.166015625 L 89.36536407470703 275.166015625 C 92.415283203125 275.166015625 94.88775634765625 277.6384887695312 94.88775634765625 280.6884155273438 L 94.88775634765625 292.1343994140625 C 94.88775634765625 295.184326171875 92.415283203125 297.6567993164062 89.36536407470703 297.6567993164062 Z" fill="rgb(130,140,179)" stroke="none" stroke-width="0"/></g><g transform="matrix(1 0 0 1 -96.1020736694336 -275.1668395996094)"><path d="M 105.0552749633789 275.1669921875 L 105.0433044433594 275.1669921875 C 103.988639831543 275.1669921875 103.0031967163086 275.4629211425781 102.1650009155273 275.9759216308594 C 103.7506790161133 276.9463500976562 104.808952331543 278.6941223144531 104.808952331543 280.6892395019531 L 104.808952331543 292.13525390625 C 104.808952331543 294.1304931640625 103.7506790161133 295.8781433105469 102.1650009155273 296.8485717773438 C 103.0031967163086 297.361572265625 103.988639831543 297.6575012207031 105.0433044433594 297.6575012207031 L 105.0552749633789 297.6575012207031 C 108.1051940917969 297.6575012207031 110.5776672363281 295.1850280761719 110.5776672363281 292.1351013183594 L 110.5776672363281 280.6890869140625 C 110.5776672363281 277.6394653320312 108.1051940917969 275.1669921875 105.0552749633789 275.1669921875 Z" fill="rgb(113,126,179)" stroke="none" stroke-width="0"/></g></g></g></g><g transform="matrix(1 0 0 1 38.6240234375 0)"><g><g><g transform="matrix(1 0 0 1 -327.9420166015625 -355.08233642578125)"><path d="M 345.83642578125 375.3726501464844 C 345.83642578125 371.6045227050781 342.78173828125 368.5499877929688 339.0137634277344 368.5499877929688 L 334.7646789550781 368.5499877929688 C 330.9965515136719 368.5499877929688 327.9420166015625 371.6046752929688 327.9420166015625 375.3726501464844 L 327.9420166015625 383.9146728515625 L 345.83642578125 383.9146728515625 L 345.83642578125 375.3726501464844 Z" fill="rgb(135,219,255)" stroke="none" stroke-width="0"/></g><g transform="matrix(1 0 0 1 -348.22918701171875 -275.166015625)"><path d="M 357.182373046875 290.9072570800781 L 357.17041015625 290.9072570800781 C 354.1204833984375 290.9072570800781 351.6480102539062 288.4347839355469 351.6480102539062 285.3848571777344 L 351.6480102539062 280.6884155273438 C 351.6480102539062 277.6384887695312 354.1204833984375 275.166015625 357.17041015625 275.166015625 L 357.182373046875 275.166015625 C 360.2322998046875 275.166015625 362.7047729492188 277.6384887695312 362.7047729492188 280.6884155273438 L 362.7047729492188 285.3848571777344 C 362.7047729492188 288.4349365234375 360.2322998046875 290.9072570800781 357.182373046875 290.9072570800781 Z" fill="rgb(130,140,179)" stroke="none" stroke-width="0"/></g><g transform="matrix(1 0 0 1 -363.9190673828125 -275.1668395996094)"><path d="M 372.8722839355469 275.1669921875 L 372.8603210449219 275.1669921875 C 371.8056640625 275.1669921875 370.8201904296875 275.4629211425781 369.9819946289062 275.9759216308594 C 371.5676879882812 276.9463500976562 372.6259460449219 278.6941223144531 372.6259460449219 280.6892395019531 L 372.6259460449219 285.3857116699219 C 372.6259460449219 287.3809509277344 371.5676879882812 289.1286010742188 369.9819946289062 290.0990295410156 C 370.8201904296875 290.6120300292969 371.8056335449219 290.907958984375 372.8603210449219 290.907958984375 L 372.8722839355469 290.907958984375 C 375.9222106933594 290.907958984375 378.3946838378906 288.4354858398438 378.3946838378906 285.3855590820312 L 378.3946838378906 280.6890869140625 C 378.3946838378906 277.6394653320312 375.9222106933594 275.1669921875 372.8722839355469 275.1669921875 Z" fill="rgb(113,126,179)" stroke="none" stroke-width="0"/></g></g></g></g></g><g transform="matrix(1 0 0 1 -4.440892098500626e-16 20.55638885498047)"><g transform="matrix(1 0 0 1 -26.935007095336914 -417.7029724121094)"><path d="M 43.86922454833984 430.2310485839844 L 29.634765625 430.2310485839844 C 28.14369773864746 430.2310485839844 26.93500709533691 429.0223388671875 26.93500709533691 427.5312805175781 L 26.93500709533691 421.8084106445312 C 26.93500709533691 419.5410461425781 28.77306365966797 417.7029724121094 31.04045867919922 417.7029724121094 L 39.763916015625 417.7029724121094 C 42.03131103515625 417.7029724121094 43.86936950683594 419.541015625 43.86936950683594 421.8084106445312 L 43.86936950683594 430.2310485839844 Z" fill="rgb(255,246,224)" stroke="none" stroke-width="0"/></g><g transform="matrix(1 0 0 1 -68.8289566040039 -417.7030029296875)"><path d="M 81.65771484375 417.7030029296875 L 75.88899993896484 417.7030029296875 C 78.15639495849609 417.7030029296875 79.99445343017578 419.5410766601562 79.99445343017578 421.8084716796875 L 79.99445343017578 430.2310791015625 L 85.76316833496094 430.2310791015625 L 85.76316833496094 421.8084716796875 C 85.76316833496094 419.5410766601562 83.92510986328125 417.7030029296875 81.65771484375 417.7030029296875 Z" fill="rgb(255,240,204)" stroke="none" stroke-width="0"/></g><g transform="matrix(1 0 0 1 16.891237258911133 3.5093226432800293)"><g transform="matrix(1 0 0 1 -144.05799865722656 -442.0364074707031)"><path d="M 144.0579986572266 445.9984741210938 L 149.8477783203125 442.3852233886719 C 151.2549133300781 441.4645385742188 153.1219482421875 442.4740600585938 153.1219482421875 444.1556396484375 C 153.1219482421875 444.8695373535156 152.7619781494141 445.5352478027344 152.1646423339844 445.9260559082031 L 144.0579986572266 451.05517578125 L 144.0579986572266 445.9984741210938 Z" fill="rgb(255,246,224)" stroke="none" stroke-width="0"/></g></g><g transform="matrix(1 0 0 1 40.09345626831055 3.5093226432800293)"><g transform="matrix(1 0 0 1 -304.9410095214844 -442.0364074707031)"><path d="M 314.0049743652344 445.9984741210938 L 308.2151794433594 442.3852233886719 C 306.8080444335938 441.4645385742188 304.9410095214844 442.4740600585938 304.9410095214844 444.1556396484375 C 304.9410095214844 444.8695373535156 305.3009643554688 445.5352478027344 305.8983154296875 445.9260559082031 L 314.0049743652344 451.05517578125 L 314.0049743652344 445.9984741210938 Z" fill="rgb(255,246,224)" stroke="none" stroke-width="0"/></g></g><g transform="matrix(1 0 0 1 -318.6325988769531 -417.7029724121094)"><path d="M 382.0244445800781 430.2310485839844 L 367.7900085449219 430.2310485839844 L 367.7900085449219 421.8084106445312 C 367.7900085449219 419.5410461425781 369.6280517578125 417.7029724121094 371.8954467773438 417.7029724121094 L 380.618896484375 417.7029724121094 C 382.8862915039062 417.7029724121094 384.724365234375 419.541015625 384.724365234375 421.8084106445312 L 384.724365234375 427.5312805175781 C 384.7242126464844 429.0223388671875 383.5155334472656 430.2310485839844 382.0244750976562 430.2310485839844 Z" fill="rgb(255,246,224)" stroke="none" stroke-width="0"/></g><g transform="matrix(1 0 0 1 -360.5265197753906 -417.7030029296875)"><path d="M 422.5126953125 417.7030029296875 L 416.7439880371094 417.7030029296875 C 419.0113830566406 417.7030029296875 420.8494567871094 419.5410766601562 420.8494567871094 421.8084716796875 L 420.8494567871094 427.5313110351562 C 420.8494567871094 429.0223999023438 419.6407470703125 430.2310791015625 418.1496887207031 430.2310791015625 L 423.9183959960938 430.2310791015625 C 425.4094848632812 430.2310791015625 426.6181640625 429.0223999023438 426.6181640625 427.5313110351562 L 426.6181640625 421.8084716796875 C 426.6181640625 419.5410766601562 424.7800903320312 417.7030029296875 422.5126953125 417.7030029296875 Z" fill="rgb(255,240,204)" stroke="none" stroke-width="0"/></g></g></g></g><g transform="matrix(1 0 0 1 32.36207580566406 37.457008361816406)"><g><g><g transform="matrix(1 0 0 1 -231.97000122070312 -267.2969970703125)"><path d="M 245.5475463867188 274.0857543945312 C 245.5475463867188 270.3365478515625 242.5081481933594 267.2969970703125 238.7587738037109 267.2969970703125 C 235.0095367431641 267.2969970703125 231.9700012207031 270.3363952636719 231.9700012207031 274.0857543945312 C 231.9700012207031 277.8349914550781 235.0093994140625 280.8745422363281 238.7587738037109 280.8745422363281 C 239.2188262939453 280.8745422363281 239.668212890625 280.8282470703125 240.1026000976562 280.7409973144531 L 243.2373199462891 282.5783386230469 L 243.2373199462891 279.1856079101562 C 244.6529541015625 277.9414367675781 245.5475463867188 276.1185302734375 245.5475463867188 274.0857543945312 Z" fill="rgb(255,246,224)" stroke="none" stroke-width="0"/></g></g></g></g><g transform="matrix(1 0 0 1 25.50984764099121 0)"><g transform="matrix(1 0 0 1 0 8.99891185760498)"><g><g><g transform="matrix(1 0 0 1 -184.45700073242188 -69.97000122070312)"><path d="M 184.4570007324219 76.75877380371094 C 184.4570007324219 73.00953674316406 187.4963989257812 69.97000122070312 191.2457733154297 69.97000122070312 C 194.9950103759766 69.97000122070312 198.0345458984375 73.00939178466797 198.0345458984375 76.75877380371094 C 198.0345458984375 80.50800323486328 194.9951477050781 83.54754638671875 191.2457733154297 83.54754638671875 C 190.7857208251953 83.54754638671875 190.3363342285156 83.50125122070312 189.9019470214844 83.41400146484375 L 186.7672424316406 85.25133514404297 L 186.7672424316406 81.85861206054688 C 185.3517303466797 80.61444091796875 184.4570007324219 78.79167175292969 184.4570007324219 76.75877380371094 Z" fill="rgb(255,246,224)" stroke="none" stroke-width="0"/></g></g></g></g><g transform="matrix(1 0 0 1 9.09798812866211 0)"><g><g transform="matrix(1 0 0 1 -247.5419921875 -7.571998596191406)"><path d="M 261.1195373535156 14.36077117919922 C 261.1195373535156 10.61153602600098 258.0801391601562 7.571998596191406 254.3307647705078 7.571998596191406 C 250.5815277099609 7.571998596191406 247.5419921875 10.6113920211792 247.5419921875 14.36077117919922 C 247.5419921875 18.11000442504883 250.5813903808594 21.14954376220703 254.3307647705078 21.14954376220703 C 254.7908172607422 21.14954376220703 255.2402038574219 21.10324859619141 255.6745910644531 21.01599502563477 L 258.8092956542969 22.85333251953125 L 258.8092956542969 19.4604606628418 C 260.2249450683594 18.21629333496094 261.1195373535156 16.39352226257324 261.1195373535156 14.3607702255249 Z" fill="rgb(255,89,172)" stroke="none" stroke-width="0"/></g></g></g></g></g><g transform="matrix(1 0 0 1 0.002384185791015625 0.07072272151708603)"><g transform="matrix(1 0 0 1 -0.002384662628173828 -43.87382125854492)"><path d="M 66.23110198974609 103.0361022949219 C 66.16116333007812 102.347900390625 66.00266265869141 101.6811828613281 65.76456451416016 101.0496520996094 C 73.53199768066406 96.71157836914062 76.55754852294922 90.36251831054688 71.05995178222656 84.16908264160156 L 71.05995178222656 78.52395629882812 C 71.05995178222656 75.78424835205078 68.92451477050781 73.53546142578125 66.23095703125 73.3507080078125 C 66.15091705322266 72.56761169433594 65.95521545410156 71.81133270263672 65.65798187255859 71.10264587402344 C 66.51939392089844 70.267333984375 67.02098083496094 69.10609436035156 67.02098083496094 67.89393615722656 L 67.02098083496094 55.7099723815918 C 66.986083984375 51.25738525390625 61.21145629882812 49.58734130859375 58.80143356323242 53.29547500610352 C 54.52868270874023 51.44674301147461 49.58403015136719 54.72366333007812 49.63450622558594 59.38449859619141 L 49.63450622558594 64.08095550537109 C 49.63450622558594 65.19821166992188 49.91429138183594 66.25086212158203 50.40607452392578 67.17428588867188 C 47.71958541870117 68.60652160644531 46.1483268737793 71.51164245605469 46.21567916870117 74.52334594726562 C 44.90978622436523 74.37393951416016 43.58168029785156 74.25596618652344 42.2365608215332 74.17073059082031 C 40.84125137329102 74.08377075195312 40.70381164550781 76.24127197265625 42.0998420715332 76.32967376708984 C 49.37434005737305 76.79045104980469 56.90511322021484 78.11408233642578 63.48015213012695 81.37889099121094 C 73.66020202636719 86.33003234863281 74.6033935546875 93.72322082519531 64.7318115234375 99.14942932128906 C 64.0394287109375 98.20912170410156 63.13994216918945 97.42039489746094 62.08368682861328 96.85838317871094 C 62.57489395141602 95.93524169921875 62.85453414916992 94.88316345214844 62.85453414916992 93.76649475097656 L 62.85453414916992 89.07003784179688 C 62.85453414916992 85.42852783203125 59.89200973510742 82.46600341796875 56.2385368347168 82.46600341796875 C 52.59703063964844 82.46600341796875 49.63450622558594 85.42852783203125 49.63450622558594 89.07003784179688 L 49.63450622558594 93.76649475097656 C 49.63450622558594 94.8831787109375 49.91414642333984 95.93538665771484 50.40549850463867 96.8585205078125 C 47.59844207763672 98.3504638671875 46.10361862182617 101.3683624267578 46.21567916870117 104.4851989746094 C 40.20972442626953 105.1970672607422 33.65559005737305 105.1970672607422 27.64949035644531 104.4853515625 C 27.78174018859863 101.6660308837891 26.58069229125977 98.95271301269531 24.23066139221191 97.33285522460938 L 24.23066139221191 89.07003784179688 C 24.23066139221191 85.42852783203125 21.26813697814941 82.46600341796875 17.61466217041016 82.46600341796875 C 13.97315883636475 82.46600341796875 11.01063346862793 85.42852783203125 11.01063346862793 89.07003784179688 L 11.01063346862793 97.33343505859375 C 10.27714061737061 97.83949279785156 9.644888877868652 98.45343017578125 9.131617546081543 99.14884948730469 C -1.041516304016113 93.53834533691406 0.3680702149868011 85.97800445556641 10.99491310119629 81.08425903320312 C 16.91650390625 78.29479217529297 24.98492050170898 76.57109832763672 33.71371459960938 76.23031616210938 C 35.111328125 76.17579650878906 35.02624130249023 74.01181030273438 33.62934494018555 74.06877136230469 C 31.60019874572754 74.14794921875 29.60436630249023 74.30110168457031 27.65843391418457 74.52291870117188 C 27.67487525939941 71.49549102783203 26.17327690124512 68.62152099609375 23.4592399597168 67.1744384765625 C 23.95102310180664 66.25100708007812 24.23080635070801 65.1983642578125 24.23080635070801 64.08110046386719 L 24.23080635070801 59.3846435546875 C 24.23080635070801 55.79808807373047 21.19357681274414 52.78061676025391 17.61480712890625 52.78061676025391 C 13.97373580932617 52.78061676025391 11.07077312469482 55.80962371826172 11.01077842712402 59.39618301391602 L 11.01077842712402 64.08110046386719 C 11.01077842712402 65.19792938232422 11.29041767120361 66.25028228759766 11.78191184997559 67.17342376708984 C 9.467502593994141 68.40547943115234 7.901440143585205 70.72378540039062 7.634059906005859 73.3507080078125 C 4.94064474105835 73.53559875488281 2.805209636688232 75.78439331054688 2.805209636688232 78.52395629882812 L 2.805209636688232 84.16474914550781 C -2.691657781600952 90.35429382324219 0.3299969434738159 96.71214294433594 8.09945011138916 101.0492095947266 C 7.86134672164917 101.6823272705078 7.705014705657959 102.3491973876953 7.63578987121582 103.0361022949219 C 4.941510200500488 103.2199859619141 2.805209636688232 105.469352722168 2.805209636688232 108.2094879150391 L 2.805209636688232 113.9323425292969 C 2.805209636688232 116.0174560546875 4.501501560211182 117.7137451171875 6.586604595184326 117.7137451171875 L 20.77678489685059 117.7137451171875 C 21.06623077392578 117.7137451171875 21.25198364257812 117.7179260253906 21.57113647460938 117.4103088378906 L 29.46303176879883 112.4170532226562 C 31.55765342712402 111.0635681152344 31.30267524719238 107.8192291259766 29.01797485351562 106.8087005615234 C 34.16222763061523 107.3061065673828 39.64481735229492 107.3081283569336 44.79022598266602 106.8146133422852 C 42.5284538269043 107.8280334472656 42.25675201416016 111.0789947509766 44.35930252075195 112.4170532226562 L 52.46593856811523 117.5461578369141 C 52.63698196411133 117.6543273925781 52.84177017211914 117.7137451171875 53.04425430297852 117.7137451171875 L 67.27870178222656 117.7137451171875 C 69.27497100830078 117.7137451171875 70.93160247802734 116.1520080566406 71.05000305175781 114.1583404541016 C 71.13292694091797 112.762451171875 68.97354888916016 112.6332244873047 68.89048004150391 114.0298309326172 C 68.8397216796875 114.8824462890625 68.13175201416016 115.5503234863281 67.27855682373047 115.5503234863281 L 54.1255989074707 115.5503234863281 C 54.12804794311523 113.7232208251953 54.12386703491211 110.0220184326172 54.1255989074707 108.2093353271484 C 54.1255989074707 106.5420379638672 55.48211288452148 105.1855239868164 57.14941787719727 105.1855239868164 C 60.05713653564453 105.1855239868164 62.96558380126953 105.1898498535156 65.87272644042969 105.1855239868164 C 67.60536193847656 105.1855239868164 68.90361022949219 106.6747131347656 68.89654541015625 108.3536987304688 C 68.89654541015625 109.7521820068359 71.059814453125 109.7521820068359 71.059814453125 108.3536987304688 C 71.12226104736328 105.6132659912109 68.97499847412109 103.2243041992188 66.23110961914062 103.0360946655273 Z M 68.89653778076172 78.52381134033203 L 68.89653778076172 82.18867492675781 C 68.11054992675781 81.57777404785156 67.23370361328125 80.99022674560547 66.27321624755859 80.42893218994141 L 66.27321624755859 75.52970123291016 C 67.75144958496094 75.7265625 68.89653778076172 76.99250793457031 68.89653778076172 78.52381134033203 Z M 62.55657958984375 53.40883255004883 C 63.82540893554688 53.40883255004883 64.85771179199219 54.44114685058594 64.85771179199219 55.70997619628906 L 64.85771179199219 67.893798828125 C 64.85771179199219 68.35067749023438 64.72647857666016 68.78304290771484 64.48577880859375 69.15065765380859 C 63.83088684082031 68.34837341308594 63.01749801635742 67.67256927490234 62.08267593383789 67.17429351806641 C 62.57445907592773 66.25086975097656 62.85424423217773 65.19807434082031 62.85424423217773 64.08096313476562 L 62.85424423217773 59.38450241088867 C 62.85424423217773 57.4237174987793 61.99427032470703 55.66065216064453 60.6309814453125 54.45008850097656 C 61.04892730712891 53.81105804443359 61.76626586914062 53.40883255004883 62.55657958984375 53.40883255004883 Z M 51.79763031005859 64.08096313476562 L 51.79763031005859 62.60964965820312 L 60.69112014770508 60.73020172119141 L 60.69112014770508 64.08096313476562 C 60.69112014770508 66.52964019775391 58.69903945922852 68.52172088623047 56.25036239624023 68.52172088623047 L 56.23838806152344 68.52172088623047 C 53.78971099853516 68.52157592773438 51.79763031005859 66.52964019775391 51.79763031005859 64.08096313476562 Z M 54.78525161743164 55.19122314453125 C 55.2432861328125 55.03200531005859 55.73492431640625 54.94417572021484 56.24747848510742 54.94388961791992 C 58.31931304931641 54.94388961791992 60.20452880859375 56.47908782958984 60.60791015625 58.53679275512695 L 51.79748916625977 60.39878845214844 L 51.79748916625977 59.39618682861328 C 51.79763793945312 57.45270538330078 53.04800415039062 55.79722595214844 54.78525543212891 55.19122314453125 Z M 48.37865829467773 74.80298614501953 C 48.23141098022461 72.33945465087891 49.45538711547852 69.9613037109375 51.75148010253906 68.92091369628906 C 54.16958236694336 71.25666809082031 58.31945419311523 71.25595092773438 60.73683929443359 68.92091369628906 C 62.77233123779297 69.84318542480469 64.10965728759766 71.88892364501953 64.10965728759766 74.15228271484375 L 64.10965728759766 79.28009033203125 C 59.81485366821289 77.20450592041016 54.37855529785156 75.6661376953125 48.37865829467773 74.80298614501953 Z M 13.17361068725586 64.08096313476562 L 13.17361068725586 62.60964965820312 L 22.06710243225098 60.73020172119141 L 22.06710243225098 64.08096313476562 C 22.06710243225098 66.52963256835938 20.07501792907715 68.52171325683594 17.6263427734375 68.52171325683594 L 17.61437225341797 68.52171325683594 C 15.16569423675537 68.52157592773438 13.17361259460449 66.52963256835938 13.17361259460449 64.08096313476562 Z M 16.16137504577637 55.19121932983398 C 16.61941146850586 55.03200531005859 17.11104965209961 54.94417572021484 17.62360000610352 54.94388580322266 C 19.69543647766113 54.94388580322266 21.58065223693848 56.47908782958984 21.98402976989746 58.53678894042969 L 13.17360877990723 60.39878845214844 C 13.07092571258545 58.1691780090332 13.86311435699463 55.9929313659668 16.16137313842773 55.19122314453125 Z M 13.12789344787598 68.92120361328125 C 15.54599571228027 71.25666809082031 19.69572448730469 71.25580596923828 22.11296272277832 68.92091369628906 C 24.42708396911621 69.96952819824219 25.55414581298828 72.35041809082031 25.5003547668457 74.79981994628906 C 20.10631370544434 75.57311248779297 14.67953586578369 76.89991760253906 9.754636764526367 79.28038024902344 L 9.754636764526367 74.15227508544922 C 9.754780769348145 71.88358306884766 11.09096050262451 69.84304046630859 13.12789535522461 68.92120361328125 Z M 7.591511249542236 75.52970123291016 L 7.591511249542236 80.42864227294922 C 6.630154132843018 80.99008178710938 5.754319190979004 81.57748413085938 4.968186378479004 82.18766784667969 L 4.968186378479004 78.52381134033203 C 4.968186378479004 76.99250793457031 6.113276481628418 75.7265625 7.591511249542236 75.52970123291016 Z M 25.48593139648438 103.8378143310547 L 25.48593139648438 107.3619232177734 L 21.90225982666016 109.5983123779297 C 21.95316886901855 108.3785095214844 21.92504692077637 107.062385559082 21.38177871704102 105.9464263916016 C 23.13921928405762 104.7250442504883 24.23037147521973 102.6921463012695 24.23037147521973 100.5158996582031 C 24.76080322265625 100.6944427490234 25.48593139648438 102.6093673706055 25.48593139648438 103.8378143310547 Z M 13.17361068725586 89.06990051269531 C 13.41517639160156 83.18321228027344 21.82467079162598 83.17513275146484 22.06710243225098 89.06990051269531 L 22.06710243225098 100.5158996582031 C 22.06710243225098 102.0219650268555 21.28976631164551 103.4253540039062 20.04689788818359 104.2377319335938 C 19.14495849609375 103.479866027832 17.98270416259766 103.0222625732422 16.71517372131348 103.0222625732422 L 13.94950580596924 103.0222625732422 C 13.44171333312988 102.2838668823242 13.17361354827881 101.4246139526367 13.17361354827881 100.5158996582031 L 13.17361068725586 89.06990051269531 Z M 11.50645160675049 103.0222625732422 L 9.814342498779297 103.0222625732422 C 9.95942497253418 102.0007629394531 10.37405204772949 101.0480651855469 11.01034164428711 100.2535705566406 C 11.00154495239258 101.1870880126953 11.15225219726562 102.1576766967773 11.50645160675049 103.0222625732422 Z M 4.96818733215332 113.9322052001953 L 4.96818733215332 108.2093505859375 C 4.96818733215332 106.5420455932617 6.324701309204102 105.1855316162109 7.992005348205566 105.1855316162109 L 16.71531677246094 105.1855316162109 C 18.38261985778809 105.1855316162109 19.73913383483887 106.5420455932617 19.73913383483887 108.2093505859375 L 19.73913383483887 115.5503387451172 L 6.586311817169189 115.5503387451172 C 5.694035530090332 115.5503387451172 4.968186378479004 114.8244934082031 4.968186378479004 113.9322052001953 Z M 28.29789352416992 110.5941467285156 L 21.90240478515625 114.6406097412109 L 21.90240478515625 112.1485290527344 L 27.14025688171387 108.8796844482422 C 28.1926155090332 108.2119445800781 29.52807426452637 109.7781524658203 28.29789543151855 110.5941467285156 Z M 51.79763031005859 89.06990051269531 C 52.0391960144043 83.18321228027344 60.44868850708008 83.17514038085938 60.69112014770508 89.06990051269531 L 60.69112014770508 93.766357421875 C 60.69112014770508 96.21504211425781 58.69903945922852 98.20712280273438 56.25036239624023 98.20712280273438 L 56.23838806152344 98.20712280273438 C 53.78971099853516 98.20712280273438 51.79763031005859 96.21504211425781 51.79763031005859 93.766357421875 L 51.79763031005859 89.06990051269531 Z M 45.0616455078125 109.7324371337891 C 45.0616455078125 108.9027557373047 46.0116081237793 108.4546661376953 46.68149948120117 108.8795318603516 L 51.96232986450195 112.1752014160156 L 51.96232986450195 114.667724609375 L 45.52386093139648 110.5941467285156 C 45.23427200317383 110.4019012451172 45.0616455078125 110.0802917480469 45.0616455078125 109.7324371337891 Z M 51.96232986450195 108.2093505859375 L 51.96232986450195 109.6252899169922 L 48.37865829467773 107.3889007568359 L 48.37865829467773 103.8379669189453 C 48.37865829467773 101.5636444091797 49.71324920654297 99.52830505371094 51.75177001953125 98.60688781738281 C 54.16972732543945 100.9422149658203 58.31931304931641 100.9416351318359 60.73654937744141 98.60688781738281 C 62.52643966674805 99.41667175292969 63.77392196655273 101.0885925292969 64.05067443847656 103.0224151611328 L 57.14927291870117 103.0224151611328 C 54.28928756713867 103.0222625732422 51.96232986450195 105.3492279052734 51.96232986450195 108.2093505859375 Z" fill="rgb(0,0,0)" stroke="none" stroke-width="0"/></g><g transform="matrix(1 0 0 1 -192.09703063964844 -222.34059143066406)"><path d="M 224.4694366455078 267.6683349609375 C 224.4302062988281 272.4152526855469 228.7896423339844 276.1764526367188 233.4774475097656 275.4562377929688 L 236.2713775634766 277.0938415527344 C 236.9290161132812 277.4790344238281 237.8998870849609 277.0277709960938 237.8998870849609 276.1606140136719 L 237.8998870849609 273.2358703613281 C 242.8381958007812 268.3321533203125 239.3081665039062 259.7862548828125 232.3397064208984 259.7979125976562 C 228.0000305175781 259.7979125976562 224.4694366455078 263.3285217285156 224.4694366455078 267.6683349609375 Z M 232.3397064208984 261.961181640625 C 237.572509765625 261.9613342285156 240.0361938476562 268.5104064941406 236.1042175292969 271.9555053710938 C 235.8705902099609 272.1608581542969 235.7366180419922 272.4569396972656 235.7366180419922 272.7678833007812 L 235.7366180419922 274.27294921875 L 234.2305450439453 273.3901672363281 C 233.7015533447266 273.0802612304688 232.8358154296875 273.3753051757812 232.33984375 273.3753051757812 C 224.767822265625 273.0616455078125 224.7714385986328 262.2731323242188 232.3397064208984 261.961181640625 Z" fill="rgb(0,0,0)" stroke="none" stroke-width="0"/></g><g transform="matrix(1 0 0 1 -213.4563446044922 -263.22479248046875)"><path d="M 250.4728546142578 309.7352600097656 C 251.8648376464844 309.7352600097656 251.8671569824219 307.5719909667969 250.4728546142578 307.5719909667969 C 249.0808563232422 307.5719909667969 249.0785522460938 309.7352600097656 250.4728546142578 309.7352600097656 Z" fill="rgb(0,0,0)" stroke="none" stroke-width="0"/></g><g transform="matrix(1 0 0 1 -232.600830078125 -263.22479248046875)"><path d="M 272.843505859375 309.7352600097656 C 274.2354736328125 309.7352600097656 274.23779296875 307.5719909667969 272.843505859375 307.5719909667969 C 271.4516296386719 307.5719909667969 271.4493408203125 309.7352600097656 272.843505859375 309.7352600097656 Z" fill="rgb(0,0,0)" stroke="none" stroke-width="0"/></g><g transform="matrix(1 0 0 1 -251.74465942382812 -263.22479248046875)"><path d="M 295.2135009765625 309.7352600097656 C 296.60546875 309.7352600097656 296.6077880859375 307.5719909667969 295.2135009765625 307.5719909667969 C 293.8216552734375 307.5719909667969 293.8193359375 309.7352600097656 295.2135009765625 309.7352600097656 Z" fill="rgb(0,0,0)" stroke="none" stroke-width="0"/></g><g transform="matrix(1 0 0 1 -151.4261016845703 -0.07072272151708603)"><path d="M 179.2563629150391 25.43264389038086 C 179.2563629150391 26.29953956604004 180.2273864746094 26.75123023986816 180.8848876953125 26.36587715148926 L 183.6788177490234 24.72842597961426 C 188.828125 25.55897903442383 193.4882202148438 20.83382034301758 192.5883178710938 15.69764137268066 C 193.4087677001953 15.83825302124023 194.2300872802734 15.84878063201904 195.0524139404297 15.72936916351318 L 197.8463439941406 17.36696434020996 C 198.5039825439453 17.75217056274414 199.474853515625 17.30091285705566 199.474853515625 16.43372917175293 L 199.474853515625 13.50898933410645 C 204.41259765625 8.605867385864258 200.8837280273438 0.05936682224273682 193.9146728515625 0.07104866206645966 C 189.1302490234375 0.0269179679453373 185.3485717773438 4.470993995666504 186.1433410644531 9.183315277099609 C 178.5912322998047 7.938282012939453 173.8770294189453 17.08069229125977 179.2565002441406 22.5080451965332 L 179.2565002441406 25.43264198303223 Z M 193.9146728515625 2.234177112579346 C 199.1474914550781 2.234321355819702 201.6111602783203 8.783402442932129 197.67919921875 12.22848129272461 C 197.4455718994141 12.43384838104248 197.3115844726562 12.72992706298828 197.3115844726562 13.04086208343506 L 197.3115844726562 14.54591941833496 L 195.8055267333984 13.663161277771 C 195.180908203125 13.49038887023926 194.5506896972656 13.48548412322998 193.9148254394531 13.64830780029297 C 186.3415069580078 13.33391189575195 186.3474273681641 2.545832633972168 193.9146728515625 2.234178304672241 Z M 179.1094055175781 16.94022750854492 C 179.0498504638672 12.95216655731201 183.3176879882812 10.09333324432373 186.9795227050781 11.65824317932129 C 187.6988830566406 12.99485492706299 188.793212890625 14.10042953491211 190.1208801269531 14.83406734466553 C 191.6370544433594 18.49042510986328 188.7790832519531 22.7053394317627 184.8165435791016 22.64721870422363 C 184.1806945800781 22.48439788818359 183.5504608154297 22.48929977416992 182.9258575439453 22.66207313537598 L 181.4197845458984 23.54483222961426 L 181.4197845458984 22.03977203369141 C 181.4197845458984 21.72869491577148 181.2857971191406 21.43276023864746 181.0521697998047 21.22739410400391 C 179.8175201416016 20.14258575439453 179.1094055175781 18.5798397064209 179.1094055175781 16.94022750854492 Z" fill="rgb(0,0,0)" stroke="none" stroke-width="0"/></g><g transform="matrix(1 0 0 1 -172.79556274414062 -94.35589599609375)"><path d="M 202.9598541259766 112.4082717895508 C 204.3518524169922 112.4082717895508 204.3541564941406 110.245002746582 202.9598541259766 110.245002746582 C 201.5678558349609 110.245002746582 201.5655517578125 112.4082717895508 202.9598541259766 112.4082717895508 Z" fill="rgb(0,0,0)" stroke="none" stroke-width="0"/></g><g transform="matrix(1 0 0 1 -191.9394073486328 -94.35589599609375)"><path d="M 225.3298492431641 112.4082717895508 C 226.7218475341797 112.4082717895508 226.7241516113281 110.245002746582 225.3298492431641 110.245002746582 C 223.9378662109375 110.245002746582 223.935546875 112.4082717895508 225.3298492431641 112.4082717895508 Z" fill="rgb(0,0,0)" stroke="none" stroke-width="0"/></g><g transform="matrix(1 0 0 1 -211.083251953125 -94.35589599609375)"><path d="M 247.6998291015625 112.4082717895508 C 249.0918273925781 112.4082717895508 249.0941467285156 110.245002746582 247.6998291015625 110.245002746582 C 246.3078460693359 110.245002746582 246.3055419921875 112.4082717895508 247.6998291015625 112.4082717895508 Z" fill="rgb(0,0,0)" stroke="none" stroke-width="0"/></g><g transform="matrix(1 0 0 1 -235.1987762451172 -30.072540283203125)"><path d="M 275.1544494628906 40.51396179199219 C 275.6642761230469 40.93637466430664 276.1742248535156 40.93637466430664 276.6840209960938 40.51396179199219 L 277.6871948242188 39.51078033447266 L 278.6903991699219 40.51396179199219 C 279.6791381835938 41.50300598144531 281.2090148925781 39.97314453125 280.219970703125 38.9843864440918 L 279.216796875 37.98120498657227 L 280.219970703125 36.97802352905273 C 281.2090148925781 35.9891242980957 279.6791381835938 34.45954895019531 278.6903991699219 35.44844818115234 L 277.6871948242188 36.45162963867188 L 276.6840209960938 35.44844818115234 C 275.6952819824219 34.45940399169922 274.1654052734375 35.98926544189453 275.1544494628906 36.97802352905273 L 276.1576538085938 37.98120498657227 L 275.1544494628906 38.9843864440918 C 274.7320556640625 39.40665435791016 274.7320556640625 40.09154510498047 275.1544494628906 40.51396179199219 Z" fill="rgb(0,0,0)" stroke="none" stroke-width="0"/></g></g></g></g></svg>