<svg xmlns="http://www.w3.org/2000/svg" width="98.00" height="98.00" viewBox="0 0 98.00 98.00"><g transform="matrix(1 0 0 1 -289.609375 -11611.8984375)"><g transform="matrix(1 0 0 1 289.609375 11611.8984375)"><g transform="matrix(1 0 0 1 -1.4135886370139367e-14 0)"><ellipse cx="48.999996185302734" cy="49" rx="48.999996185302734" ry="49" fill="rgb(250,251,255)" stroke="none" stroke-width="0"/></g><g transform="matrix(1 0 0 1 -5.92228889465332 19.259841918945312)"><g transform="matrix(1 0 0 1 -45.91571044921875 -35.360904693603516)"><path d="M 121.099365234375 42.60109710693359 C 120.8428649902344 41.68728637695312 120.245849609375 40.92821502685547 119.4184722900391 40.46340942382812 C 117.7101669311523 39.50406646728516 115.5400695800781 40.113037109375 114.5806045532227 41.82122802734375 L 113.7668228149414 43.2701301574707 C 111.9667282104492 46.47496795654297 109.0668411254883 48.84615707397461 105.6932067871094 50.01752090454102 C 106.0439300537109 49.30167007446289 106.2415466308594 48.49776077270508 106.2415466308594 47.64830780029297 L 106.2415466308594 45.84171295166016 C 106.2415466308594 42.86224746704102 103.8176040649414 40.43820190429688 100.8380279541016 40.43820190429688 C 97.85844421386719 40.43820190429688 95.43463134765625 42.86213302612305 95.43463134765625 45.84171295166016 L 95.43463134765625 47.64842224121094 C 95.43463134765625 48.49787139892578 95.63224029541016 49.30178451538086 95.98297119140625 50.01763916015625 C 92.60932159423828 48.84627532958984 89.70943450927734 46.47508239746094 87.90934753417969 43.27024459838867 L 87.09555816650391 41.82135009765625 C 86.13621520996094 40.11315536499023 83.96611785888672 39.50383377075195 82.25769805908203 40.46352767944336 C 81.43031311035156 40.9283332824707 80.83330535888672 41.68740081787109 80.57679748535156 42.60121154785156 C 80.32028198242188 43.5149040222168 80.43495178222656 44.47390365600586 80.89975738525391 45.30116271972656 L 82.69868469238281 48.5042610168457 C 84.88249206542969 52.39219284057617 88.63217163085938 55.43032455444336 93.07366180419922 56.94033432006836 L 93.07366180419922 68.66511535644531 L 90.37580108642578 90.1971435546875 C 90.09768676757812 92.41649627685547 91.60977935791016 94.43324279785156 93.81820678710938 94.78826904296875 C 94.91452789306641 94.96461486816406 96.01212310791016 94.70113372802734 96.90873718261719 94.04662322998047 C 97.80558013916016 93.39199066162109 98.39108276367188 92.42695617675781 98.55733489990234 91.32901000976562 L 100.8380126953125 76.26845550537109 L 103.1188278198242 91.32912445068359 C 103.2850723266602 92.42683410644531 103.8705749511719 93.39198303222656 104.7673110961914 94.04662322998047 C 105.4822311401367 94.56846618652344 106.324821472168 94.84170532226562 107.1926422119141 94.84170532226562 C 107.4131317138672 94.84170532226562 107.6354904174805 94.82404327392578 107.8577117919922 94.78826904296875 C 110.0662612915039 94.43324279785156 111.578254699707 92.41661071777344 111.3002548217773 90.1971435546875 L 108.6023864746094 68.66511535644531 L 108.6023864746094 56.94033432006836 C 113.0437622070312 55.43032455444336 116.7935638427734 52.39219284057617 118.9773712158203 48.50426864624023 L 120.7762832641602 45.30128479003906 C 121.241096496582 44.47378921508789 121.3558731079102 43.51478958129883 121.099365234375 42.60109710693359 Z M 97.75806427001953 45.84171295166016 C 97.75806427001953 44.14339447021484 99.13982391357422 42.76164627075195 100.8381423950195 42.76164627075195 C 102.5364608764648 42.76164627075195 103.918212890625 44.14339447021484 103.918212890625 45.84171295166016 L 103.918212890625 47.64842224121094 C 103.918212890625 49.34674835205078 102.5364608764648 50.72849273681641 100.8381423950195 50.72849273681641 C 99.13982391357422 50.72849273681641 97.75806427001953 49.34674835205078 97.75806427001953 47.64842224121094 L 97.75806427001953 45.84171295166016 Z M 118.750602722168 44.16337966918945 L 116.9516754150391 47.36624526977539 C 114.927375793457 50.97013092041016 111.3425445556641 53.74292755126953 107.116081237793 54.97330474853516 C 106.6200332641602 55.11770629882812 106.2790679931641 55.57217788696289 106.2790679931641 56.08879089355469 L 106.2790679931641 68.73750305175781 C 106.2790679931641 68.78582000732422 106.2819747924805 68.83403778076172 106.2880096435547 68.88190460205078 L 108.9949340820312 90.48583221435547 C 109.116569519043 91.45668792724609 108.4552001953125 92.33878326416016 107.4889984130859 92.49410247802734 C 107.0095520019531 92.57125091552734 106.5294189453125 92.45600128173828 106.1372222900391 92.16963195800781 C 105.7449035644531 91.88327789306641 105.4888687133789 91.46110534667969 105.416130065918 90.98108673095703 L 101.9867324829102 68.33577728271484 C 101.9006576538086 67.76780700683594 101.4124984741211 67.34796142578125 100.8380279541016 67.34796142578125 C 100.2635650634766 67.34796142578125 99.77552032470703 67.76780700683594 99.68932342529297 68.33577728271484 L 96.25992584228516 90.98096466064453 C 96.18719482421875 91.46122741699219 95.93115234375 91.88338470458984 95.53884124755859 92.16963195800781 C 95.14653015136719 92.45587921142578 94.66696166992188 92.57135772705078 94.18695068359375 92.49410247802734 C 93.22097778320312 92.33878326416016 92.55950164794922 91.45668792724609 92.68124389648438 90.48583221435547 L 95.38805389404297 68.88190460205078 C 95.39409637451172 68.83403778076172 95.39699554443359 68.78582000732422 95.39699554443359 68.73750305175781 L 95.39699554443359 56.08890914916992 C 95.39699554443359 55.57241058349609 95.055908203125 55.11794281005859 94.55998229980469 54.97342300415039 C 90.33351898193359 53.74292755126953 86.74868011474609 50.97024917602539 84.72438049316406 47.36635589599609 L 82.92546081542969 44.16337966918945 C 82.76455688476562 43.87701416015625 82.72482299804688 43.54534530639648 82.81369781494141 43.22900772094727 C 82.90245819091797 42.91278839111328 83.1090087890625 42.65011978149414 83.39548492431641 42.48922348022461 C 83.68185424804688 42.32832717895508 84.01351928710938 42.28882598876953 84.32986450195312 42.37746429443359 C 84.64608001708984 42.46622085571289 84.90874481201172 42.67277145385742 85.06964111328125 42.95925521850586 L 85.88343048095703 44.40815734863281 C 88.91575622558594 49.80678558349609 94.64594268798828 53.16055679321289 100.8380279541016 53.16055679321289 C 107.0302352905273 53.16055679321289 112.7604141235352 49.80678558349609 115.7926330566406 44.40803527832031 L 116.6064147949219 42.95925521850586 C 116.7673187255859 42.67277145385742 117.0299758911133 42.46622085571289 117.3461990356445 42.37746429443359 C 117.6626586914062 42.2887077331543 117.9942016601562 42.32832717895508 118.2805786132812 42.48922348022461 C 118.5670547485352 42.65012359619141 118.7736053466797 42.91278839111328 118.8623580932617 43.22900772094727 C 118.9511184692383 43.54522323608398 118.9115142822266 43.87701416015625 118.7506103515625 44.16337966918945 Z" fill="rgb(94,74,77)" stroke="none" stroke-width="0"/></g><g transform="matrix(1 0 0 1 1.9073486328125e-06 -116.91453552246094)"><path d="M 35.58081436157227 135.2455749511719 L 33.77899169921875 135.2455749511719 L 33.77899169921875 133.4437408447266 C 33.77899169921875 132.80224609375 33.25876998901367 132.2820129394531 32.61726760864258 132.2820129394531 C 31.97576332092285 132.2820129394531 31.45554542541504 132.80224609375 31.45554542541504 133.4437408447266 L 31.45554542541504 135.2455749511719 L 29.65371513366699 135.2455749511719 C 29.01221466064453 135.2455749511719 28.49199485778809 135.7657928466797 28.49199485778809 136.4072875976562 C 28.49199485778809 137.0487976074219 29.01221466064453 137.5690002441406 29.65371513366699 137.5690002441406 L 31.45554542541504 137.5690002441406 L 31.45554542541504 139.3708343505859 C 31.45554542541504 140.0123291015625 31.97576332092285 140.5325622558594 32.61726760864258 140.5325622558594 C 33.25876998901367 140.5325622558594 33.77899169921875 140.0123291015625 33.77899169921875 139.3708343505859 L 33.77899169921875 137.5690002441406 L 35.58081436157227 137.5690002441406 C 36.22232055664062 137.5690002441406 36.74253845214844 137.0487976074219 36.74253845214844 136.4072875976562 C 36.74253845214844 135.7657928466797 36.22243499755859 135.2455749511719 35.58081436157227 135.2455749511719 Z" fill="rgb(94,74,77)" stroke="none" stroke-width="0"/></g><g transform="matrix(1 0 0 1 -339.3899230957031 -109.40463256835938)"><path d="M 419.5807800292969 126.7485427856445 L 417.7789611816406 126.7485427856445 L 417.7789611816406 124.9467239379883 C 417.7789611816406 124.3052139282227 417.2587585449219 123.7849960327148 416.6172485351562 123.7849960327148 C 415.9757690429688 123.7849960327148 415.4555053710938 124.3052139282227 415.4555053710938 124.9467239379883 L 415.4555053710938 126.7485427856445 L 413.6536865234375 126.7485427856445 C 413.0121765136719 126.7485427856445 412.4920043945312 127.2687606811523 412.4920043945312 127.910270690918 C 412.4920043945312 128.5517730712891 413.0121765136719 129.0720062255859 413.6536865234375 129.0720062255859 L 415.4555053710938 129.0720062255859 L 415.4555053710938 130.8738250732422 C 415.4555053710938 131.5153198242188 415.9757690429688 132.0355529785156 416.6172485351562 132.0355529785156 C 417.2587585449219 132.0355529785156 417.7789611816406 131.5153198242188 417.7789611816406 130.8738250732422 L 417.7789611816406 129.0720062255859 L 419.5807800292969 129.0720062255859 C 420.2223205566406 129.0720062255859 420.7425231933594 128.5517730712891 420.7425231933594 127.910270690918 C 420.7425231933594 127.2687606811523 420.222412109375 126.7485427856445 419.5807800292969 126.7485427856445 Z" fill="rgb(94,74,77)" stroke="none" stroke-width="0"/></g><g transform="matrix(1 0 0 1 -239.14527893066406 0)"><path d="M 300.2327270507812 4.415934085845947 L 301.1634826660156 4.415934085845947 L 301.1634826660156 5.346705436706543 C 301.1634826660156 5.988207340240479 301.6837158203125 6.508425712585449 302.3251953125 6.508425712585449 C 302.9667358398438 6.508425712585449 303.4869384765625 5.988207340240479 303.4869384765625 5.346705436706543 L 303.4869384765625 4.415934085845947 L 304.4176940917969 4.415934085845947 C 305.0592041015625 4.415934085845947 305.5794372558594 3.895715475082397 305.5794372558594 3.254213094711304 C 305.5794372558594 2.612710952758789 305.0592041015625 2.092492580413818 304.4176940917969 2.092492580413818 L 303.4869384765625 2.092492580413818 L 303.4869384765625 1.16172182559967 C 303.4869384765625 0.5202195644378662 302.9667358398438 9.5367431640625e-07 302.3251953125 9.5367431640625e-07 C 301.6837158203125 9.5367431640625e-07 301.1634826660156 0.5202195644378662 301.1634826660156 1.16172182559967 L 301.1634826660156 2.092492580413818 L 300.2327270507812 2.092492580413818 C 299.5912170410156 2.092492580413818 299.0710144042969 2.612710952758789 299.0710144042969 3.254213094711304 C 299.0710144042969 3.895715475082397 299.5910949707031 4.415934085845947 300.2327270507812 4.415934085845947 Z" fill="rgb(94,74,77)" stroke="none" stroke-width="0"/></g><g transform="matrix(1 0 0 1 -77.03886413574219 -184.2852020263672)"><path d="M 122.1654205322266 211.7622222900391 C 122.1654205322266 211.1207275390625 121.6452102661133 210.6004943847656 121.0037078857422 210.6004943847656 L 120.0729293823242 210.6004943847656 L 120.0729293823242 209.6697387695312 C 120.0729293823242 209.0282287597656 119.5527191162109 208.5080108642578 118.9112167358398 208.5080108642578 C 118.2697067260742 208.5080108642578 117.7494964599609 209.0282287597656 117.7494964599609 209.6697387695312 L 117.7494964599609 210.6004943847656 L 116.818717956543 210.6004943847656 C 116.1772232055664 210.6004943847656 115.6569976806641 211.1207275390625 115.6569976806641 211.7622222900391 C 115.6569976806641 212.4037322998047 116.1772232055664 212.9239349365234 116.818717956543 212.9239349365234 L 117.7494964599609 212.9239349365234 L 117.7494964599609 213.8547210693359 C 117.7494964599609 214.4962310791016 118.2697067260742 215.0164184570312 118.9112167358398 215.0164184570312 C 119.5527191162109 215.0164184570312 120.0729293823242 214.4962310791016 120.0729293823242 213.8547058105469 L 120.0729293823242 212.9239349365234 L 121.0037078857422 212.9239349365234 C 121.6453247070312 212.9239349365234 122.1654205322266 212.4037170410156 122.1654205322266 211.7622222900391 Z" fill="rgb(94,74,77)" stroke="none" stroke-width="0"/></g></g></g></g></svg>